<?xml version="1.0" encoding="UTF-8" standalone="no"?>
<!-- Created with Inkscape (http://www.inkscape.org/) -->

<svg
   version="1.1"
   id="svg1"
   width="931.94983"
   height="562.57306"
   viewBox="0 0 931.94983 562.57306"
   sodipodi:docname="gymkhana.svg"
   inkscape:version="1.4.2 (ebf0e940, 2025-05-08)"
   xmlns:inkscape="http://www.inkscape.org/namespaces/inkscape"
   xmlns:sodipodi="http://sodipodi.sourceforge.net/DTD/sodipodi-0.dtd"
   xmlns="http://www.w3.org/2000/svg"
   xmlns:svg="http://www.w3.org/2000/svg">
  <defs
     id="defs1">
    <inkscape:path-effect
       effect="fill_between_many"
       method="originald"
       linkedpaths="#path3,0,1|"
       id="path-effect3" />
  </defs>
  <sodipodi:namedview
     id="namedview1"
     pagecolor="#ffffff"
     bordercolor="#000000"
     borderopacity="0.25"
     inkscape:showpageshadow="2"
     inkscape:pageopacity="0.0"
     inkscape:pagecheckerboard="0"
     inkscape:deskcolor="#d1d1d1"
     inkscape:zoom="0.85032453"
     inkscape:cx="445.71218"
     inkscape:cy="263.42883"
     inkscape:window-width="1536"
     inkscape:window-height="907"
     inkscape:window-x="0"
     inkscape:window-y="25"
     inkscape:window-maximized="0"
     inkscape:current-layer="g1" />
  <g
     inkscape:groupmode="layer"
     inkscape:label="Image"
     id="g1"
     transform="translate(-56.888894,-444.56517)">
    <path
       style="display:none;fill:#000000;fill-opacity:1"
       d="M 189.08333,1006.642 C 230.84415,970.76148 250.4343,957.53714 265,955.39444 c 7.76638,-1.14249 8.01573,-2.3301 0.5,-2.38139 -35.14291,-0.23984 -64.00741,-26.06243 -72.01095,-64.42199 -0.33382,-1.59992 -2.07337,-4.29992 -3.86567,-6 C 182.0822,875.43791 170,864.91455 170,865.49947 c 0,1.39811 2.65365,5.4177 9.00729,13.64375 5.61948,7.27551 7.26105,10.36118 10.37398,19.5 4.59901,13.50162 7.10982,19.63924 10.30293,25.18529 3.05129,5.2997 4.82277,4.51299 -14.6842,6.52122 -9.075,0.93426 -23.7,2.57836 -32.5,3.65356 -18.79117,2.29592 -19.71024,2.33282 -17.13536,0.6879 1.69905,-1.08541 14.42332,-10.55267 31.91498,-23.74576 6.77961,-5.11352 6.77961,-5.11352 4.88162,-8.27948 -1.0439,-1.74127 -3.12388,-5.30157 -4.62219,-7.91177 -2.17331,-3.78613 -3.16046,-4.65687 -4.88162,-4.30598 -1.18659,0.24191 -6.20743,1.17136 -11.15743,2.06543 -4.95,0.89408 -13.275,2.44235 -18.5,3.44061 -11.06514,2.11405 -11.45377,2.04416 -6.09877,-1.0967 35.06055,-20.56404 33.56662,-17.86261 20.93596,-37.85754 -1.91087,-3.025 -4.05437,-6.94758 -4.76334,-8.71684 -1.98716,-4.95909 -2.68015,-5.10994 -14.40005,-3.13457 -22.21173,3.74376 -25.05326,5.40552 -10.6738,6.24218 33.73118,1.96264 32.93095,5.10923 -1.29936,5.10923 -23.57539,0 -55.500562,-2.13183 -53.965513,-3.60359 0.42068,-0.40334 4.139873,-2.50338 8.264873,-4.66677 56.98525,-29.88629 62,-32.65619 62,-34.24574 0,-1.55354 -54.166145,-21.47424 -75.337835,-27.70702 -2.457876,-0.72358 0.152993,-1.81797 19.5,-8.17374 58.449475,-19.2015 104.580505,-36.41075 87.543595,-32.65828 -1.53683,0.3385 -6.03683,1.04128 -10,1.56174 -3.96317,0.52046 -13.05576,1.80034 -20.20576,2.84417 -20.35006,2.97091 -36.714313,0.55593 -18.187,-2.68398 3.813,-0.66679 3.813,-0.66679 -5,-7.06258 -11.0958,-8.05248 -43.200965,-34.33112 -43.265072,-35.41323 -0.02636,-0.44496 0.416661,-0.52188 0.984492,-0.17094 0.567831,0.35094 7.655331,2.14225 15.75,3.98069 15.216775,3.456 50.50324,12.57757 64.96758,16.79415 9.14175,2.66497 9.23576,2.6281 5.89686,-2.31275 C 154.35263,721.06696 148.6591,711.175 142.99457,701 131.59763,680.52806 123.01231,667.27228 109.96361,650 84.768083,616.64921 76.509454,602.61955 73.370897,587.8367 c -8.327835,-39.22474 30.558183,-66.29563 65.499833,-45.59836 13.85809,8.20867 19.82446,16.11946 48.55665,64.38104 14.78692,24.83766 40.65189,65.77625 41.12686,65.09482 0.0821,-0.11781 -0.41313,-6.5142 -1.10054,-14.2142 -0.6874,-7.7 -1.99334,-25.25 -2.90207,-39 -0.90873,-13.75 -2.3046,-32.55924 -3.10194,-41.79832 -3.87845,-44.94155 0.92811,-61.52905 20.72334,-71.51652 31.46581,-15.87573 53.59829,3.08338 65.15708,55.81484 1.38645,6.325 2.72716,12.4 2.97935,13.5 0.2522,1.1 0.50195,-0.475 0.55502,-3.5 0.10178,-5.80244 -2.2402,-25.27609 -3.39747,-28.25 -0.72809,-1.87104 2.01136,-2.13153 18.53299,-1.76229 6.5,0.14526 6.5,0.14526 -1,-5.05597 -4.125,-2.86068 -8.95143,-5.92809 -10.7254,-6.81648 -1.77396,-0.8884 -3.23646,-1.87633 -3.25,-2.19541 -0.0526,-1.24113 27.02059,-7.02305 36.84661,-7.86919 5.70416,-0.49119 10.69229,-1.26603 11.08471,-1.72187 1.08931,-1.26531 11.30377,-32.72139 17.91105,-55.15821 0.72891,-2.47522 0.48725,-2.85703 12.07132,19.07181 4.326,8.1892 4.50219,8.21624 6.56603,1.00761 6.90796,-24.12828 8.75411,-28.81361 10.13158,-25.7129 1.20835,2.72002 9.96107,22.01606 19.12968,42.17285 2.05393,4.51547 3.95942,8.22732 4.23442,8.24855 0.83136,0.0642 23.88393,-46.4398 29.5282,-59.56725 1.98057,-4.6064 1.11053,-6.1215 9.10679,15.85875 6.82178,18.75181 5.74596,18.36326 11.72229,4.23378 6.06281,-14.33393 4.82212,-15.25758 13.64272,10.15642 4.125,11.88498 7.95065,22.23711 8.50144,23.00474 0.85253,1.18816 3.67763,1.0947 19,-0.62852 26.26707,-2.95413 53.95964,-5.78412 54.2552,-5.54452 0.28605,0.23189 -19.99611,13.31513 -40.99045,26.44135 -7.55359,4.72271 -13.74109,9.09679 -13.75,9.72017 -0.0341,2.3887 5.48085,2.08345 13.67886,-0.75711 4.61203,-1.59804 28.72988,-7.40588 53.59522,-12.90632 24.86535,-5.50043 49.03473,-10.87234 53.70973,-11.93757 10.80928,-2.46295 18.30467,-3.47317 15.5,-2.08906 -22.28942,10.99986 -58.46619,24.40755 -77.5,28.72274 -16.95189,3.8432 -11.26303,4.27345 12.4165,0.93906 60.73947,-8.55289 58.82511,-8.3667 63.96073,-6.2209 3.38221,1.41317 6.62277,7.1475 6.62277,11.71931 0,1.1347 0.3375,1.89175 0.75,1.68233 16.57963,-8.41724 22.72565,-10.86907 31.90708,-12.72868 11.7826,-2.38645 16.9828,-2.66502 13.97113,-0.74841 -13.25277,8.43398 -52.09108,34.84873 -52.40252,35.64007 -0.25148,0.63898 6.39457,-1.22825 20.86845,-5.86306 3.39802,-1.08811 12.03465,-6.09331 22,-12.74969 9.02322,-6.02708 25.29336,-16.49574 36.15586,-23.26369 20.25633,-12.62084 21.26554,-13.45665 17.63849,-14.60783 -1.773,-0.56273 -1.89324,-0.88198 -0.75,-1.99142 2.97507,-2.88712 74.87668,-38.4389 82.87435,-40.97727 1.06483,-0.33796 -8.96495,10.23134 -22.28839,23.48735 C 788.5,510.08509 788.5,510.08509 797.5,509.42083 c 10.76655,-0.79464 10.40069,-0.0899 -2.5,4.81573 -5.225,1.98686 -17.375,6.62407 -27,10.30491 -18.69036,7.14766 -21.84302,8.28628 -54.85387,19.81114 -11.74463,4.10032 -21.82196,7.92322 -22.39405,8.49531 -0.72024,0.72024 -0.4576,0.90271 0.85387,0.59325 1.04173,-0.24582 7.4801,-1.82439 14.30749,-3.50794 23.0078,-5.67346 56.35616,-12.30897 93.08656,-18.52196 7.975,-1.34898 15.2875,-2.6987 16.25,-2.99937 3.32095,-1.03742 0.56042,3.44158 -7.60431,12.3381 -4.365,4.75623 -4.08913,5.11306 1.78859,2.31348 16.94861,-8.07271 48.42892,-18.49829 59.39959,-19.67183 7.11481,-0.76108 6.00472,0.20958 -8.1187,7.09899 -16.17931,7.89227 -12.26767,7.04516 19.78483,-4.28465 9.35,-3.305 21.5,-7.64959 27,-9.65463 5.5,-2.00505 10.8717,-3.92386 11.93712,-4.26402 1.31281,-0.41914 -0.89378,3.50201 -6.84674,12.16676 -8.70388,12.66884 -15.11135,24.46867 -19.57338,36.0459 -3.07024,7.96605 -4.00561,8.74551 -14.517,12.09724 -9,2.86979 -9,2.86979 2.5,3.50472 6.325,0.3492 12.29906,0.69412 13.27568,0.76648 2.62328,0.19436 -0.3473,5.56391 -4.57423,8.26828 C 886.5,587.185 886.5,587.185 889.5,586.55807 c 7.57805,-1.58365 7.81138,-1.86563 11.44678,-13.83354 9.68142,-31.87171 13.68358,-36.67982 30.72822,-36.91623 24.82189,-0.34429 58.48435,30.30973 57.12377,52.01858 -0.48935,7.80795 -0.75251,8.41649 -45.62209,105.49866 -17.02009,36.82554 -17.02009,36.82554 -15.13497,40.02058 20.7292,35.13337 -7.96246,73.33204 -46.76354,62.2587 -8.22184,-2.3464 -8.22184,-2.3464 -16.5,2.4823 -12.04206,7.02421 -11.75459,6.78626 -8.27817,6.85196 4.51169,0.0853 38.7763,4.17975 40.5,4.8396 1.4365,0.5499 -2.13424,1.09656 -17.5,2.67913 -23.03821,2.37279 -54.0905,7.40399 -86.97298,14.09168 -25.89435,5.26642 -25.9318,5.23 5.47298,5.32274 36.1659,0.1068 70.04054,1.42057 68.79309,2.66801 -0.20031,0.20032 -11.37321,2.16694 -24.82865,4.37026 -58.11958,9.51708 -99.39664,16.22467 -111.96444,18.1944 -8.09731,1.26908 -18.93512,3.87256 -27.08103,6.50547 C 695.4494,866.02466 688.61345,868 687.72798,868 c -0.88547,0 -1.85589,0.39794 -2.15648,0.88432 -0.8642,1.3983 20.54057,-0.89055 69.9285,-7.47756 17.06319,-2.27576 -31.46788,8.86258 -70,16.06567 -65.99739,12.33738 -83.58461,16.32186 -86.78896,19.66251 -0.98392,1.02578 -2.67689,1.86506 -3.76215,1.86506 -1.88983,0 -14.75083,3.66664 -54.81576,15.62785 -10.10178,3.01584 -32.37678,10.36147 -49.5,16.32361 -26.77786,9.32379 -50.32847,17.19134 -100.63501,33.61912 -10.68808,3.49023 -15.31029,4.39086 -11.49812,2.24039 1.1,-0.62052 5.6,-3.71269 10,-6.87149 15.80997,-11.35014 76.36786,-44.17542 85.75,-46.48062 3.59175,-0.88249 3.59175,-2.68429 0,-1.88497 -5.56183,1.23776 -6.90425,1.65745 -14.6113,4.56802 -4.32372,1.63285 -8.08176,2.74837 -8.35119,2.47893 -0.755,-0.755 11.33941,-6.67261 19.71249,-9.64503 4.125,-1.46436 8.85848,-3.36574 10.51885,-4.22529 C 500.72024,894.81024 608,858.75023 608,862.23633 c 0,0.27058 -2.1375,1.29367 -4.75,2.27354 -12.27146,4.60267 -38.85701,15.79401 -39.75,16.73299 -0.69194,0.72757 -0.38387,0.82219 1,0.30713 1.1,-0.4094 4.25,-1.40678 7,-2.21641 2.75,-0.80962 13.775,-4.33103 24.5,-7.82535 24.11207,-7.85597 60.60085,-19.444 72.14461,-22.91154 10.55373,-3.17015 15.5984,-3.44171 8.85539,-0.47669 -10.74207,4.72348 -34.95653,16.2568 -34.69035,16.52298 0.3572,0.3572 14.49814,-4.52841 24.69035,-8.53036 4.125,-1.61968 15.9375,-5.74693 26.25,-9.17168 15.46365,-5.13543 25.8088,-9.9294 16.25,-7.5303 -1.375,0.34511 -2.5,0.21947 -2.5,-0.27919 0,-2.36248 47.16139,-18.6929 76.63289,-26.53541 18.09781,-4.81592 19.83936,-5.58325 18.08812,-7.96963 -1.98274,-2.70186 -33.58109,3.61349 -103.8809,20.762 -10.08706,2.46058 -27.79011,6.75994 -39.34011,9.55414 -11.55,2.7942 -34.05,8.45733 -50,12.58474 -15.95,4.12741 -40.475,10.45655 -54.5,14.06476 -58.92382,15.15932 -60.85191,16.02498 -47.08261,21.13876 2.21647,0.82317 1.80091,1.18098 -5,4.30516 -13.69581,6.29152 -44.34523,22.21906 -52.06223,27.05511 -7.64484,4.79082 -7.64484,4.79082 -13.64219,-0.63647 -5.99735,-5.42729 -5.99735,-5.42729 -22.35516,2.39858 -27.91508,13.35507 -24.69122,12.06406 -62.85781,25.17172 -71.78975,24.65494 -81.06194,28.0556 -97.5,35.75902 -44.07668,20.65579 -56.21476,26.44027 -59.29153,28.25557 -2.76936,1.634 -6.5305,2.81 -5.12514,1.6025 z M 297,924.06409 c 15.91954,-4.55452 38.12948,-18.61189 45.77994,-28.97558 2.66447,-3.60942 2.40117,-3.73171 -2.57198,-1.19461 -7.2934,3.72082 -33.56562,10.83993 -28.82289,7.81028 28.44332,-18.16956 38.95036,-26.54897 39.44075,-31.45418 0.39456,-3.9467 1.19248,-3.97203 -8.60359,0.27314 -8.26481,3.5816 -28.79161,9.45888 -33.0763,9.47048 -2.21868,0.006 -2.11538,-0.26679 1.79635,-4.74362 20.35953,-23.30076 27.24077,-33.02616 35.01732,-49.49074 7.27684,-15.40657 7.34967,-16.12175 1.06643,-10.47257 -17.82118,16.02277 -36.8989,16.15388 -54.70309,0.37594 -12.56264,-11.13292 -18.71515,-12.60094 -7.98471,-1.9052 4.22729,4.21362 8.63204,9.61544 9.78835,12.00404 3.22988,6.67206 1.55411,6.67988 -3.41225,0.0159 -16.29168,-21.86041 -59.03129,-16.93952 -83.50825,9.61485 -4.26603,4.6281 -4.26603,4.6281 -7.36214,3.02704 -3.09611,-1.60106 -3.09611,-1.60106 1.99656,-6.76018 5.09267,-5.15912 5.09267,-5.15912 -4.12392,-5.15912 -11.424,0 -16.68387,-1.85312 -22.72159,-8.00511 -5.04964,-5.1452 -4.7178,-5.66337 1.14302,-1.78486 7.76838,5.14087 23.11791,3.76415 34.29687,-3.07614 3.93487,-2.40771 3.93487,-2.40771 -1.78818,-3.68847 -10.21994,-2.28713 -9.86126,-3.4871 1.05378,-3.5254 C 230.06617,806.34855 261,793.35087 261,784.86514 261,783.83931 261.40217,783 261.8937,783 c 1.31065,0 -0.67042,7.93056 -2.94944,11.80716 -3.42311,5.82267 -1.55795,5.85793 4.05263,0.0766 9.12269,-9.40031 9.2981,-28.01709 0.35722,-37.91357 -12.31027,-13.626 -36.77829,-13.02604 -74.85411,1.83542 -9.03594,3.52683 -9.22304,3.54969 -6,0.73304 3.48602,-3.04648 14.38446,-8.48204 23,-11.47118 6,-2.08169 6,-2.08169 -0.5,-1.51644 -75.72982,6.58557 -63.4044,90.22347 19.5,132.32314 26.59183,13.5036 59.64633,5.56069 70.36709,-16.90901 2.13042,-4.46517 2.13042,-4.46517 1.60326,-0.46517 -2.80314,21.26952 -17.08954,32.0695 -44.1396,33.36789 -7.2431,0.34766 -13.44968,0.91369 -13.7924,1.25784 -0.7176,0.72058 7.56679,6.79249 11.84088,8.67859 4.65329,2.05343 2.41753,2.35708 -4.48008,0.60846 -7.05341,-1.78811 -19.25558,-7.10626 -23.91125,-10.4214 -5.32553,-3.79211 -0.75973,7.69961 6.65365,16.74667 11.32964,13.82633 43.09441,19.55398 68.35845,12.32604 z m 74.67033,-9.09135 c 10.35632,-4.415 19.77551,-8.42498 20.93154,-8.91107 1.66628,-0.70065 2.23789,-2.09385 2.75824,-6.72274 1.10174,-9.80082 5.80922,-38.76732 6.49504,-39.96587 0.37756,-0.65983 6.4478,5.13598 14.64485,13.98277 31.79689,34.31726 28.74486,32.30536 39.5,26.03837 5.225,-3.04459 14.44364,-8.03579 20.48587,-11.09156 10.27015,-5.19397 10.85649,-5.64911 9,-6.9861 C 463.06281,865.16813 429,836.95242 429,834.52682 429,830.77633 463.9756,783.89378 476.39266,771 491.41669,755.39916 493.85887,752.56338 491.5,753.45778 c -1.1,0.41708 -9.2,2.53438 -18,4.70511 -36.20418,8.93063 -31.35109,5.26869 -49.48201,37.33711 -11.47587,20.29752 -19.05048,32.83641 -19.51042,32.29721 -0.47401,-0.55569 10.23436,-62.61815 11.36274,-65.85503 1.12247,-3.21991 1.12247,-3.21991 -4.0406,-2.60842 -4.8121,0.56992 -30.72069,8.67879 -33.6403,10.52874 -1.20813,0.76551 -5.68614,25.70921 -12.14258,67.6375 -2.79805,18.17056 -12.98816,81.47949 -13.48029,83.75 -0.49024,2.26186 -2.39367,2.88731 19.10379,-6.27726 z M 486.5,911 c 1.26064,-0.54172 1.44548,-0.85943 0.5,-0.85943 -0.825,0 -2.4,0.38674 -3.5,0.85943 -1.26064,0.54172 -1.44548,0.85943 -0.5,0.85943 0.825,0 2.4,-0.38674 3.5,-0.85943 z m -0.33995,-46.92943 C 493.01786,862.6469 493,862.70351 493,842.38412 c 0,-14.36589 0,-14.36589 9.98183,-19.375 C 508.47184,820.2541 513.36705,818 513.86009,818 c 0.49303,0 1.22343,8.28548 1.62312,18.41217 0.72669,18.41217 0.72669,18.41217 5.37174,15.68407 5.08353,-2.98564 17.30288,-8.59773 20.935,-9.61501 2.28369,-0.63961 2.28954,-0.68971 2.13617,-18.3113 -0.15379,-17.66993 -0.15379,-17.66993 3.71004,-19.73667 3.86384,-2.06674 3.86384,-2.06674 4.95681,-11.5 1.36931,-11.81841 2.01727,-11.54404 -12.84297,-5.43832 -0.99901,0.41047 -1.75,0.27727 -1.75,-0.3104 0,-0.56619 1.57845,-1.55037 3.50768,-2.18707 4.7737,-1.57547 4.99802,-2.20584 7.47411,-21.0034 2.09885,-15.93371 3.25459,-21.99326 5.10091,-26.74407 1.35672,-3.49102 -0.92968,-2.88709 -17.5827,4.64434 -15,6.78384 -15,6.78384 -16.16402,16.69475 -1.99795,17.01126 -1.99148,17.05615 2.41402,16.74135 3.75,-0.26796 3.75,-0.26796 0.25,0.88933 -4.44561,1.46996 -4.63231,1.78373 -5.44592,9.15266 -1.14948,10.41101 -0.94714,10.1295 -10.10931,14.06552 -4.60845,1.97977 -8.99206,3.83484 -9.74138,4.12237 -1.08521,0.41644 -0.89817,-2.32482 0.91938,-13.47409 2.8849,-17.6967 4.14627,-27.08623 3.6387,-27.08623 -1.74813,0 -28.47341,14.5275 -29.19062,15.86762 -0.98751,1.84517 -3.41061,17.67701 -7.51985,49.13238 -1.40108,10.725 -2.73763,20.9175 -2.97011,22.65 -0.48358,3.60376 0.57925,4.81684 9.8749,11.27089 3.27568,2.27433 6.43723,3.9504 7.02566,3.7246 0.58844,-0.2258 3.59381,-0.93452 6.6786,-1.57492 z M 347.40278,850.22628 c 1.50186,-3.45054 2.92583,-7.95054 3.16438,-10 0.35945,-3.08817 0.28196,-3.29817 -0.45252,-1.22628 -1.27462,3.59557 -5.39562,12.07761 -7.28774,15 -0.89026,1.375 -1.93673,3.625 -2.32549,5 -1.35497,4.79239 3.90999,-1.90096 6.90137,-8.77372 z m 215.33285,-5.32583 c 13.24596,-4.08801 13.04412,-3.90014 14.94759,-13.91246 2.03224,-10.68968 1.38157,-10.09461 17.36343,-15.87958 7.39934,-2.67835 14.24085,-5.19658 15.20335,-5.59606 0.9625,-0.39948 1.75298,-0.56568 1.75663,-0.36934 0.004,0.19635 0.90066,5.53199 1.99337,11.85699 1.09271,6.325 1.98972,11.62107 1.99337,11.76905 0.0296,1.20133 14.10137,-4.30431 15.09006,-5.90405 0.34296,-0.55492 1.70199,-1.17389 3.02007,-1.37548 1.31807,-0.20159 5.05385,-1.2942 8.30173,-2.42802 3.24787,-1.13383 6.73537,-2.0615 7.75,-2.0615 2.11553,0 2.22639,-0.35946 0.8523,-2.76357 C 649.46417,815.53617 640,789.90099 640,788.42082 c 0,-0.1122 1.11201,-0.4831 2.47114,-0.82422 1.35912,-0.34112 2.97274,-1.55748 3.58582,-2.70304 0.96217,-1.79782 0.86349,-2.01417 -0.72113,-1.58113 -7.20709,1.9695 -6.88339,2.13928 -8.73803,-4.58309 C 633.4262,767.23342 620.89414,729 620.29764,729 c -1.95118,0 -40.37182,13.54945 -43.04764,15.18121 -3.66728,2.23637 -3.78722,2.53694 -1.8916,4.74005 3.92616,4.56302 3.74269,7.31625 -1.31828,19.78202 -2.64417,6.51292 -7.55591,19.16961 -10.91497,28.12596 -3.35905,8.95636 -7.23637,18.21078 -8.61626,20.56538 -1.37989,2.3546 -2.50889,5.61189 -2.50889,7.23841 0,2.40157 -3.22109,16.51251 -5.62358,24.63577 -0.48687,1.64619 -0.29275,1.66558 2.80022,0.2797 1.82785,-0.819 7.92939,-2.91063 13.55899,-4.64805 z m 23.62328,-42.54939 c 3.85728,-10.97716 16.20035,-41.12345 16.70887,-40.80917 0.36429,0.22514 0.91654,2.10782 1.22724,4.18373 0.84263,5.63008 4.6454,25.5113 5.23497,27.36887 0.40383,1.27234 -1.46059,2.31556 -8.75848,4.90074 -5.09933,1.80637 -10.57461,3.94189 -12.16728,4.7456 -2.70743,1.36625 -2.85346,1.3409 -2.24532,-0.38977 z m 154.48905,33.59945 c 13.10921,-3.4509 15.10055,-4.396 7.13391,-3.38578 C 742.5113,833.25843 727,837.67837 727,838.54351 c 0,0.8747 2.33784,0.43695 13.84796,-2.593 z m -76.10992,-21.07569 c 20.05226,-6.4195 20.56187,-6.80838 19.80832,-15.11511 -1.20105,-13.23978 -4.55601,-41.61623 -5.1374,-43.45242 -1.04346,-3.29559 4.5399,5.07537 27.62492,41.41715 5.85955,9.22444 5.85955,9.22444 9.66283,7.91389 2.09181,-0.72081 7.67485,-2.14626 12.40676,-3.16767 8.60348,-1.85712 8.60348,-1.85712 9.25008,-15.91389 1.05098,-22.84773 9.43097,-66.46045 18.06498,-94.01711 1.37176,-4.37819 2.32189,-8.13257 2.1114,-8.34307 -0.42279,-0.42278 -39.62214,12.62433 -41.598,13.84548 -1.47801,0.91346 -1.81945,32.75176 -0.54649,50.95793 0.98938,14.15028 0.63153,13.83436 -5.9186,-5.22519 -4.60249,-13.39231 -13.8512,-37.96967 -14.96895,-39.77823 -0.34506,-0.55832 -29.45531,8.79596 -36.59075,11.75807 -3.09594,1.2852 -3.91294,9.69803 -3.89921,40.15091 0.004,9.67694 -0.52001,26.37996 -1.16528,37.11782 C 652.80374,810.31167 653.00827,818 654.50709,818 c 0.25795,0 4.86188,-1.40633 10.23095,-3.12518 z M 705.67316,745.25 c -0.88351,-1.48948 -6.67076,-22.8765 -6.57429,-24.29557 0.13884,-2.04252 4.85822,12.9338 7.18339,22.79557 0.52704,2.23532 0.24258,2.93582 -0.6091,1.5 z m -378.14208,64.80932 c 41.10908,-20.23794 49.10689,-85.40515 10.4974,-85.53416 -12.33592,-0.0412 -15.72097,2.50598 -16.43699,12.3686 C 320.40503,753.23644 309.21686,793 305.80502,793 c -0.44276,0 -0.81503,-3.4875 -0.82726,-7.75 -0.0255,-8.88472 -2.13751,-8.07605 -5.58156,2.1371 -6.8991,20.45894 8.09194,32.53932 28.13488,22.67222 z M 323.5,801.34342 c 9.686,-5.08999 17.94528,-14.24955 24.65591,-27.34342 1.55031,-3.025 2.82446,-4.89081 2.83142,-4.14623 0.0762,8.13873 -22.0265,33.30599 -29.07488,33.10619 -0.77685,-0.022 -0.0624,-0.74946 1.58755,-1.61654 z M 351,767.5 c 0,-0.275 0.225,-0.5 0.5,-0.5 0.275,0 0.5,0.225 0.5,0.5 0,0.275 -0.225,0.5 -0.5,0.5 -0.275,0 -0.5,-0.225 -0.5,-0.5 z m 407.33366,28.09205 c 17.68852,-5.39624 15.79646,-3.71482 19.01089,-16.89436 1.5466,-6.34124 3.33928,-12.19794 3.98373,-13.01488 1.68348,-2.13409 32.70883,-11.78907 33.1973,-10.33088 0.31736,0.9474 3.22044,16.46657 5.22392,27.92581 0.2671,1.52775 1.36764,3.24977 2.44563,3.82669 1.10353,0.59059 1.72127,1.67106 1.41367,2.47263 -0.47071,1.22665 -0.10087,1.23109 2.67244,0.0321 1.77032,-0.76537 6.59376,-2.82244 10.71876,-4.57126 10.33265,-4.3806 21,-9.32322 21,-9.73016 0,-0.18592 -1.3265,-2.69371 -2.94778,-5.57288 C 852.78932,765.71625 842,741.44343 842,740.37117 c 0,-0.11316 2.1375,-0.99001 4.75,-1.94854 6.52585,-2.39436 6.97559,-2.96224 8.64136,-10.91136 1.83781,-8.77014 2.45558,-8.5036 -9.46279,-4.0827 -11.07503,4.10809 -14.01164,4.16743 -6.028,0.12182 5.94773,-3.01395 5.76848,-2.04238 2.6511,-14.36917 -2.37815,-9.4037 -6.25196,-29.35291 -9.11328,-46.93122 -0.70606,-4.33764 -2.05074,-4.25339 -17.98003,1.12652 -19.6528,6.63748 -21.32466,7.41875 -20.73127,9.68786 0.4308,1.64741 -0.0258,1.93562 -3.06635,1.93562 -5.06597,0 -12.30542,12.75514 -25.77125,45.40625 -5.28824,12.8226 -5.76461,15.53382 -1.38612,7.88892 7.41101,-12.9397 24.04032,-39.28982 25.03673,-39.67218 3.44469,-1.32185 -35.46028,73.31682 -38.98322,74.7888 -1.95629,0.81739 -3.55688,2.18412 -3.55688,3.03718 0,1.84832 1.15069,2.00034 2.78333,0.3677 1.64096,-1.64096 2.58926,-0.38137 1.39413,1.85175 -4.49529,8.39952 -8.78584,32.16275 -5.58537,30.93462 0.86637,-0.33246 6.60008,-2.13741 12.74157,-4.01099 z m -6.25033,-2.97923 c 1.01088,-0.93933 15.15258,-4.44873 14.23686,-3.53301 -0.56251,0.56251 -3.45218,1.66933 -6.42147,2.4596 -5.23655,1.39369 -8.66712,1.86486 -7.81539,1.07341 z M 789.50098,745.25 c 0.39323,-0.9625 3.31842,-8.5 6.50043,-16.75 9.71707,-25.19346 8.7173,-24.745 12.35819,-5.54336 3.47357,18.31925 4.14082,16.67893 -8.41042,20.67565 -12.36881,3.93863 -11.33074,3.77791 -10.4482,1.61771 z m 104.55026,25.1256 c 9.85771,-5.36524 14.37167,-14.56021 12.20914,-24.87012 -5.55416,-26.47965 -45.16072,-23.24933 -47.96401,3.91195 -1.88324,18.24679 18.63691,30.27493 35.75487,20.95817 z M 875.29156,768.25 c -0.35512,-0.9625 -1.1285,-2.08061 -1.71862,-2.48469 -0.67511,-0.46227 -0.51676,-0.72857 0.42706,-0.71819 1.94577,0.0214 5,2.35062 5,3.81312 0,1.81291 -2.99633,1.31985 -3.70844,-0.61024 z m -576.88869,-2.07329 c 13.67553,-9.37909 17.14162,-49.42622 6.19267,-71.55003 -1.37572,-2.77983 -2.33809,-5.21747 -2.13859,-5.41697 C 303.70489,687.96178 318,711.19533 318,714.4715 c 0,0.95931 0.46682,1.35802 1.11846,0.95529 0.73787,-0.45603 0.96752,-3.4536 0.67488,-8.80902 -1.95375,-35.75476 -48.48592,-49.92254 -58.37804,-17.77453 -3.94414,12.81793 -2.03476,47.95818 2.77966,51.15676 7.80834,5.18766 11.55414,10.09201 16.18941,21.19661 3.95881,9.48403 9.29921,10.96006 18.0185,4.9801 z m 106.38929,-23.76494 c 14.0615,-2.89743 34.43547,-12.90481 43.75276,-21.49068 1.84485,-1.70003 1.73322,-0.93224 -1.14088,7.84726 -4.96119,15.15487 -4.99082,15.40596 -1.66823,14.13845 1.5203,-0.57997 9.51419,-3.55472 17.76419,-6.61054 16.77899,-6.21499 16.05471,-5.67116 16.87967,-12.67431 4.60582,-39.09926 8.11559,-58.8267 10.7042,-60.16532 2.44591,-1.26483 2.68271,-1.98812 3.32607,-10.15921 0.38097,-4.83858 1.14916,-10.53034 1.70709,-12.64836 0.55793,-2.11802 0.77661,-4.08875 0.48596,-4.3794 -1.62408,-1.62408 -60.84733,14.28057 -78.21583,21.00519 -8.11283,3.14107 -8.11283,3.14107 -8.75147,12.18311 -0.35126,4.97312 -0.92608,11.63091 -1.27738,14.79508 -0.76558,6.89548 -2.05712,6.91038 22.14169,-0.25547 26.4296,-7.82643 26.49856,-7.79989 10.73009,4.13015 -37.58207,28.43368 -68.6495,23.62222 -57.23166,-8.86357 5.65746,-16.09651 27.78127,-38.07619 47.82066,-47.50914 10.55682,-4.96931 11.66242,-4.63595 10.83636,3.26737 -0.74965,7.17225 -1.22838,7.0937 7.09093,1.16343 C 462.05098,627.41472 491.40801,612 495.8078,612 c 0.72063,0 1.03787,-0.4407 0.70497,-0.97933 -1.481,-2.39631 2.36423,-5.43119 14.1842,-11.19502 C 522.67992,593.98236 531,591.24026 531,593.13427 531,593.61042 530.45709,594 529.79354,594 527.86331,594 510,604.98175 510,606.16839 c 0,0.74276 0.38753,0.75782 1.25,0.0486 0.6875,-0.56536 3.95,-1.7852 7.25,-2.71076 3.3,-0.92556 17.25,-4.9992 31,-9.05253 13.75,-4.05333 33.55,-9.45327 44,-11.99987 10.45,-2.5466 19.9,-4.98221 21,-5.41246 2.01959,-0.78993 11.47858,-31.3961 10.12229,-32.75239 -2.04647,-2.04648 -50.41531,8.52508 -72.62229,15.87242 -13.89836,4.59837 -26.00335,7.82352 -25.99368,6.92553 0.0133,-1.23029 9.72776,-6.54005 18.3732,-10.04245 5.47582,-2.21834 5.75046,-2.48122 4,-3.82863 -1.73661,-1.33674 -1.65141,-1.39844 1.12048,-0.81139 9.24322,1.95757 11.06932,2.00314 9.61304,0.2399 -1.61496,-1.95538 -14.16031,-9.07921 -22.11304,-12.55682 -3.025,-1.32278 -8.75071,-3.93075 -12.72381,-5.79549 -6.01376,-2.8225 -7.58035,-3.19962 -9.35231,-2.25129 -1.90755,1.02089 -0.35007,2.017 15.00393,9.59596 16.29274,8.04235 19.31787,10.39947 13.26317,10.33437 -4.37862,-0.0471 -41.63272,4.29961 -42.34372,4.94053 -0.359,0.32362 -0.79205,8.2384 -0.96232,17.5884 -0.17028,9.35 -0.44361,17.30192 -0.60742,17.67093 -0.1638,0.36902 -2.88075,-0.89031 -6.03767,-2.79849 -3.15692,-1.90819 -8.43985,-4.83085 -11.73985,-6.49481 -3.3,-1.66396 -6.75919,-3.53448 -7.6871,-4.15671 -2.1784,-1.46079 -18.39086,0.47606 -31.21496,3.72916 -41.72638,10.58477 -100.12172,65.67216 -99.91375,94.25389 0.0379,5.20398 0.0379,5.20398 -5.90745,-0.68627 -9.34731,-9.26073 -23.66058,-18.13254 -23.84703,-14.78112 -0.0387,0.69486 -0.45702,0.3634 -0.92971,-0.7366 -0.47269,-1.1 -0.94281,-7.4 -1.04471,-14 -0.13708,-8.87787 -0.38749,-10.95929 -0.96246,-8 -1.27435,6.55894 -1.62587,25.99689 -0.47016,25.99854 7.70864,0.011 27.7117,23.76808 35.96645,42.71631 2.70705,6.21387 2.90334,6.40507 7.75951,7.55862 11.02659,2.61929 23.83562,11.8623 28.91749,20.86688 3.38862,6.00431 4.40918,6.998 7.83388,7.62765 4.71619,0.86709 7.09771,0.72924 14.79216,-0.85623 z M 350.05833,671.5 c -0.20963,-6.94138 26.32928,-41.41688 35.70831,-46.38704 1.24666,-0.66063 -2.16292,3.2062 -7.57684,8.59295 -9.009,8.96379 -17.8391,20.87914 -25.89553,34.94348 -1.21316,2.11784 -2.21933,3.40061 -2.23594,2.85061 z m 295.32839,58.13722 c -0.60927,-5.86279 -0.60927,-5.86279 -4.1219,-5.29277 -5.03325,0.81679 -5.03858,0.88987 -0.71161,9.76468 4.50661,9.24329 6.10513,7.76436 4.83351,-4.47191 z M 202,736.47561 c 5.54156,-0.98529 16.75305,-1.84887 26.90686,-2.07254 20.67565,-0.45546 18.45808,1.08036 15.79775,-10.94101 C 242.04952,711.46438 241.26714,711.09128 218,710.72701 210.025,710.60216 202.99218,710.05078 202.37152,709.50174 200.87847,708.18097 214.80236,704 220.69398,704 c 5.21291,0 5.23613,-0.20749 0.72793,-6.5032 -4.50815,-6.29564 -15.24104,-24.43726 -38.15737,-64.4968 -41.26984,-72.14288 -54.96735,-86.73474 -76.08166,-81.04925 -22.334255,6.014 -20.16705,36.78749 4.82754,68.54925 22.3198,28.36278 31.1701,41.02309 44.77781,64.05448 3.9172,6.62996 8.04234,12.8872 9.16698,13.90498 1.12463,1.01779 2.04479,2.39242 2.04479,3.05476 0,0.66233 1.43079,3.85509 3.17954,7.09501 1.74874,3.23992 4.5859,9.04077 6.3048,12.89077 1.71889,3.85 4.36881,9.40815 5.88871,12.35144 3.13162,6.06441 0.98156,5.76151 18.62695,2.62417 z m 307.13992,-6.45627 c 5.14804,-1.08937 12.51008,-2.68325 16.36008,-3.54196 3.85,-0.85871 9.33305,-2.04863 12.18455,-2.64425 5.08688,-1.06255 5.22666,-1.18892 7.41941,-6.70804 4.09609,-10.30983 13.74418,-28.82541 20.99443,-40.29031 14.97946,-23.68716 48.21791,-79.85181 47.614,-80.45572 -0.1892,-0.18921 -3.01439,0.0806 -6.2782,0.59955 -3.2638,0.51896 -10.43419,1.64187 -15.93419,2.49536 -18.36548,2.84995 -19.69206,3.30327 -17.85795,6.10247 1.52108,2.32148 1.24455,2.91163 -9.06704,19.35031 -5.84979,9.32569 -12.37049,19.92399 -14.49045,23.55179 -4.34171,7.42976 -3.02748,9.38342 -12.99776,-19.32174 -2.16693,-6.23877 -4.17457,-11.5779 -4.46141,-11.86474 -0.28685,-0.28685 -6.7324,1.16236 -14.32346,3.22047 -7.59106,2.0581 -15.05292,3.96279 -16.5819,4.23263 -2.29345,0.40477 -2.66749,0.86377 -2.13725,2.62274 1.73632,5.75993 21.90113,53.97315 23.0575,55.12952 1.88049,1.8805 0.51435,4.78529 -13.28042,28.23778 -6.39412,10.87064 -11.81742,20.1023 -12.05178,20.5148 -0.65863,1.15925 1.69431,0.91452 11.83184,-1.23066 z M 596.5,722.4595 c 29.97948,-8.89322 71.21167,-27.08116 68.20634,-30.0865 -0.97714,-0.97713 -53.49411,17.60562 -68.70634,24.31125 -6.68111,2.94507 -15.08635,10.57359 -9.75,8.84901 0.6875,-0.22218 5.3,-1.60538 10.25,-3.07376 z M 903.29344,712.25 c 0.83082,-2.0625 9.60048,-21.075 19.48812,-42.25 40.17735,-86.04228 42.48987,-91.66561 39.80772,-96.79966 -4.29306,-8.21757 -26.46402,-19.03706 -32.95229,-16.0808 -3.43989,1.56731 -6.17538,8.7539 -16.13164,42.38046 -2.93123,9.9 -9.24281,30.825 -14.02573,46.5 -4.78292,15.675 -10.19146,33.45 -12.01897,39.5 -1.82751,6.05 -4.41908,14.6 -5.75903,19 -2.43628,8 -2.43628,8 4.44173,8.72417 3.7829,0.3983 8.3357,1.14522 10.11733,1.65982 5.08721,1.46937 5.43181,1.34031 7.03276,-2.63399 z M 941.5,569.60018 c -9.19039,-4.66096 -13.28207,-7.20275 -11.91021,-7.39874 4.54216,-0.64891 24.40742,9.74295 25.85976,13.52769 0.26822,0.69898 0.3893,1.20345 0.26907,1.12105 -0.12024,-0.0824 -6.51862,-3.3449 -14.21862,-7.25 z M 246.07202,691.28359 c 6.45107,-19.38547 17.58236,-29.17505 37.15546,-32.67693 7.11121,-1.27228 7.42739,-2.04809 9.8246,-24.10666 6.28798,-57.86038 -11.7382,-119.5 -34.94714,-119.5 -19.67561,0 -22.33157,11.74601 -18.63711,82.42277 2.24335,42.91627 2.06546,41.75541 6.27753,40.96522 3.91999,-0.73539 3.46974,1.94708 -0.83261,4.96057 -2.44988,1.71596 -2.44904,1.70324 -2.13811,32.40144 0.25272,24.95159 0.21788,24.78747 3.29738,15.53359 z m 374.97267,-3.30743 c 15.54469,-5.23997 15.54469,-5.23997 17.57825,-14.60806 1.11846,-5.15246 1.67838,-9.3681 1.24427,-9.3681 -0.43412,0 -1.70747,-0.98554 -2.82969,-2.1901 -2.34163,-2.51345 -1.30671,-3.76911 3.12752,-3.79459 2.62547,-0.0151 2.73089,-0.28626 7.10082,-18.26531 2.74698,-11.30179 4.66535,-17.48855 5.03876,-16.25 0.33164,1.1 2.62337,10.7121 5.09274,21.36022 5.33436,23.00224 3.54619,20.65065 14.10799,18.5531 9.56184,-1.89896 9.63678,-1.96791 28.99465,-26.67572 7.64588,-9.75899 8.54978,-10.15414 7.85909,-3.43578 -1.7459,16.9826 -6.37449,39.75686 -10.00057,49.20628 -0.83786,2.18343 -1.5807,2.33277 23.77894,-4.78043 C 740.77493,672.5 740.77493,672.5 741.35752,668 c 4.65572,-35.96138 15.22596,-84.91266 23.07809,-106.87573 0.86042,-2.40665 1.56439,-4.47473 1.56439,-4.59574 0,-0.12101 -3.2625,0.40092 -7.25,1.15985 C 740.12821,561.23262 712.03881,566 709.778,566 c -2.04536,0 -2.88677,0.88137 -4.53462,4.75 -1.11279,2.6125 -6.94466,15.775 -12.95971,29.25 -6.01504,13.475 -11.30604,25.4 -11.75777,26.5 -1.0138,2.46866 -1.41189,0.54915 -5.52044,-26.61794 -3.41336,-22.57022 -3.50067,-22.88414 -6.36245,-22.87587 -7.90664,0.0228 -40.32062,5.21155 -41.63431,6.66467 -0.41227,0.45603 -4.84276,13.87914 -9.84552,29.82914 -11.8037,37.63304 -25.18446,80.54158 -25.78549,82.68723 -0.5332,1.90349 0.55524,1.60224 29.667,-8.21107 z m 241.88784,-2.9949 c -1.7587,-14.02257 -7.54569,-28.90654 -14.9915,-38.5577 -7.19388,-9.3246 -8.25935,-7.08825 -1.44497,3.03293 6.49844,9.65193 10.89875,20.21579 14.64867,35.16719 2.55876,10.2021 3.03442,10.29724 1.7878,0.35758 z m -90.26571,-18.11971 c 1.41625,-1.17538 3.52141,-6.86844 2.53116,-6.8451 -2.46831,0.0582 -8.74165,4.84288 -9.03459,6.89073 -0.35306,2.46818 3.5071,2.4411 6.50343,-0.0456 z M 335.02898,642.0725 c 14.62681,-17.5236 41.29933,-39.43265 61.47102,-50.49285 3,-1.64491 3,-1.64491 -0.5,-0.99762 -15.52632,2.87146 -47.67019,25.18693 -67.92609,47.15681 -10.73571,11.64413 -10.8169,11.79524 -7.34851,13.67629 4.38292,2.37706 4.68708,2.17839 14.30358,-9.34263 z m 484.95528,5.41788 c 16.33396,-4.81208 19.6241,-6.04295 17.91054,-6.70051 -1.43161,-0.54936 -23.0174,6.38367 -29.8948,9.60175 -1.925,0.90075 -2.60708,1.3798 -1.51574,1.06455 1.09134,-0.31525 7.16634,-2.09986 13.5,-3.96579 z m -31.6114,-17.05841 C 833.9895,618.40975 836.56329,617.4561 861.71361,603.25744 878.57426,593.73872 879.81089,594.20171 845,597 c -37.60381,3.0228 -38.05843,2.31578 -2.90556,-4.51873 4.72694,-0.91902 9.21432,-2.05406 9.97197,-2.52231 5.32508,-3.29109 -18.35123,-1.14532 -56.24355,5.09731 C 785.99533,596.67532 776.89454,598 775.59889,598 773.57761,598 770,606.43909 770,611.20701 c 0,0.16279 6.8625,0.29531 15.25,0.29449 8.3875,-8.3e-4 17.05,0.27214 19.25,0.60659 3.44855,0.52427 -5.10185,0.89511 -30.14147,1.30728 -5.14147,0.0846 -5.14147,0.0846 -6.88805,10.08463 -0.96062,5.5 -1.95761,10.5625 -2.21552,11.25 -0.70616,1.88233 0.31564,1.69148 23.1179,-4.31803 z M 886.33181,624.5 c 3.20182,-9.92747 6.91008,-24.59144 6.35829,-25.14323 -0.88882,-0.88882 -27.65443,16.95527 -36.1901,24.12721 -3.52111,2.95855 -4.29338,3.18014 13.2536,-3.80285 6.18949,-2.46317 11.45253,-4.15662 11.69566,-3.76323 0.24312,0.39338 0.579,4.59932 0.74639,9.34652 0.35361,10.02842 0.67436,9.96914 4.13616,-0.76442 z M 342.5,592.12679 c 1.3204,-1.24155 14.55687,-5.11842 17.60781,-5.1572 4.10415,-0.0522 -0.0124,-1.74788 -8.72999,-3.59606 -9.75307,-2.06772 -9.63482,-1.91572 -12.38743,-15.92244 -2.70325,-13.75552 -2.80361,-13.72378 -5.44171,1.72085 -2.07107,12.12504 -2.07107,12.12504 -7.05987,13.51553 -17.15858,4.78249 -17.72568,5.52525 -5.91843,7.75163 C 331.5,592.5 331.5,592.5 333.85549,602.5 c 1.29552,5.5 2.59538,10.675 2.88857,11.5 0.2932,0.825 1.48323,-3.54741 2.64451,-9.71646 1.16129,-6.16906 2.56143,-11.63959 3.11143,-12.15675 z m 32.14655,-28.45381 c 9.83246,-8.05394 7.4388,-8.12802 20.20736,0.62532 5.85535,4.01407 11.14494,7.60129 11.75464,7.9716 1.01677,0.61755 -6.42938,-21.19809 -8.65444,-25.35564 -1.06661,-1.99298 1.41639,-4.80464 10.29589,-11.65871 C 414.76085,530.22983 414.49316,530 402.12869,530 391.25738,530 391.25738,530 386.40072,515 381.89071,501.07066 380,497.20697 380,501.92003 c 0,2.79444 -6.92096,26.40093 -8.08006,27.56003 -0.54067,0.54067 -7.95104,1.21634 -16.46748,1.50149 C 339.968,531.5 339.968,531.5 351.58085,539.5 c 6.38706,4.4 12.30603,8.48913 13.15326,9.08695 1.4632,1.03247 -0.65127,8.65444 -8.43712,30.41305 -0.29521,0.825 1.8797,-0.78466 4.83313,-3.57702 2.95344,-2.79237 9.03583,-8.07987 13.51643,-11.75 z M 454.75509,554 c 1.65211,0 7.13523,3.67998 21.15648,14.19914 5.72636,4.29608 10.56302,7.6596 10.74814,7.47448 0.4608,-0.4608 -5.18026,-19.16173 -8.20038,-27.18543 -3.35813,-8.92174 -4.09595,-7.77733 12.5644,-19.48819 8.21576,-5.775 14.94722,-10.725 14.95882,-11 0.0116,-0.275 -7.57137,-0.275 -16.85105,0 -24.17065,0.71629 -21.59319,2.09133 -27.17962,-14.5 -4.52863,-13.44975 -4.75887,-13.88209 -5.85806,-11 -10.40443,27.28049 -9.74324,26.46568 -21.59382,26.61058 -6.05,0.074 -15.725,0.41685 -21.5,0.76196 -11.88205,0.71005 -13.05991,-0.87922 10.70415,14.44288 11.32075,7.29916 11.40314,4.75296 -1.08473,33.52319 -1.99068,4.58624 -3.61942,8.53266 -3.61942,8.76981 0,0.23716 7.73337,-4.75272 17.18526,-11.08861 C 445.63716,559.18391 453.99358,554 454.75509,554 Z M 836.5,568.4788 c 8.69588,-0.93046 7.95614,-1.20336 -7.55734,-2.78798 C 816.5,564.41986 816.5,564.41986 824,562.60336 c 4.125,-0.99908 11.325,-3.08186 16,-4.62842 4.675,-1.54655 14.50484,-4.68125 21.84409,-6.966 7.33925,-2.28475 13.18925,-4.29298 13,-4.46273 -0.44124,-0.39578 -17.42851,2.52088 -40.34409,6.92694 -9.9,1.90351 -22.275,4.2807 -27.5,5.28265 -10.48278,2.01018 -11.12331,2.56504 -12.45227,10.78678 -0.65344,4.04258 -0.65344,4.04258 17.14942,1.86389 C 821.48872,570.2082 832.65,568.89074 836.5,568.4788 Z M 314.83222,972.54611 c 5.07623,-2.99963 10.45312,-6.31853 11.94865,-7.37531 8.70864,-6.15384 41.76497,-22.92401 53.21913,-26.99919 14.92531,-5.31016 27.32963,-10.22656 33.41435,-13.24364 8.23837,-4.08495 8.00141,-3.54411 -3.62559,8.27495 -23.55591,23.94504 -25.51929,24.9977 -65.78876,35.27238 -16.225,4.13978 -30.88195,7.97639 -32.571,8.52579 -6.49143,2.11148 -5.48947,0.79987 3.40322,-4.45498 z m 312.2639,-121.5401 c 0.87787,-0.51324 3.57787,-1.19392 6,-1.51263 4.40388,-0.57946 4.40388,-0.57946 0.40388,0.94853 -4.58749,1.7524 -9.11916,2.15159 -6.40388,0.5641 z m 317.46334,-93.54073 c -0.36471,-1.9441 -2.46753,-9.17891 -4.67292,-16.07737 -4.00981,-12.54264 -4.00981,-12.54264 3.08297,-27.67097 7.94614,-16.94851 15.98359,-32.09717 16.66715,-31.41362 0.60038,0.60039 -9.33351,30.51439 -14.64251,44.09306 -5.01074,12.81582 -6.23231,11.22558 13.50585,17.58195 20.19019,6.50193 19.47781,6.21892 17.07542,6.78337 -1.05852,0.24871 -7.74467,2.65407 -14.8581,5.34525 -15.43764,5.84042 -15.31888,5.83043 -16.15786,1.35833 z m -815.1788,-56.84535 c -8.09518,-5.89044 -15.69929,-15.22739 -24.8148,-30.4697 -4.10658,-6.86673 19.04265,16.51661 25.03621,25.28941 1.90148,2.7832 4.17378,6.07286 5.04955,7.31036 2.20642,3.11774 1.60964,2.87657 -5.27096,-2.13007 z m 93.568,-43.83787 c -0.7263,-1.80513 -4.2001,-9.35706 -7.71956,-16.78206 -3.51947,-7.425 -10.46636,-22.5 -15.43754,-33.5 -4.97119,-11 -11.01247,-23.9375 -13.42508,-28.75 -2.4126,-4.8125 -4.12267,-8.75 -3.80014,-8.75 5.69209,0 30.50432,7.50277 30.86858,9.3341 0.23695,1.19125 1.35707,8.9159 2.48917,17.1659 1.13209,8.25 2.96888,21.075 4.08175,28.5 4.97487,33.19197 5.51109,39.16521 2.94282,32.78206 z M 199.25,560.25849 c -6.1875,-2.55833 -11.24889,-4.90058 -11.24753,-5.205 0.002,-0.49638 19.67275,-7.05349 21.15961,-7.05349 0.57208,0 1.00719,2.27742 2.4359,12.75 0.70428,5.16234 1.39249,5.18974 -12.34798,-0.49151 z m 117.861,-45.70282 c 1.82325,-1.82325 37.83376,-17.94424 38.52937,-17.24863 0.46989,0.46989 -2.68609,9.88772 -3.78726,11.30165 -0.47489,0.60978 -5.02362,1.66482 -10.10828,2.34454 -5.08466,0.67972 -12.31175,1.86831 -16.06021,2.64131 -7.09694,1.46352 -9.32589,1.71339 -8.57362,0.96113 z"
       id="path1"
       sodipodi:nodetypes="cssssssssssssssssssssssssssssssssssssssssssssssssssssssssssssssssssssssssssssssssssssssssssssssssssssssssssssssssssssssssssssssssssssssssssssssssssssssssssssssssssssssssssssssscsssssssssssssssssssssssssssssssssssssssssssssssssssssssssssssssssssssssssssssssssssssssssssssssssssssssssssscssssssssssssssssssssssssssssssssssssssssssssssscssssssssssssssssssssssssssssssssssssssssssssssssssssssssssssssssssssssssssssssssssssssssssssssssssssssssssssssssssssssssssssssssssssssssssssssssssssssssssssssssssssssssssssssssssssssssssssssssssssssssssssssssssssssssssssssssssssssssssssssssssssssssssssssssssssssssssssssssssssssssssssssssssssssssssssssssssssssssssssssssssssssssssssssssssssssssssssssssssssssssssssssssssssssssscsssssssss" />
    <path
       inkscape:original-d="M 0,0"
       inkscape:path-effect="#path-effect3"
       d="M 189.08333,1006.642 C 230.84415,970.76148 250.4343,957.53714 265,955.39444 c 7.76638,-1.14249 8.01573,-2.3301 0.5,-2.38139 -35.14291,-0.23984 -64.00741,-26.06243 -72.01095,-64.42199 -0.33382,-1.59992 -2.07337,-4.29992 -3.86567,-6 C 182.0822,875.43791 170,864.91455 170,865.49947 c 0,1.39811 2.65365,5.4177 9.00729,13.64375 5.61948,7.27551 7.26105,10.36118 10.37398,19.5 4.59901,13.50162 7.10982,19.63924 10.30293,25.18529 3.05129,5.2997 4.82277,4.51299 -14.6842,6.52122 -9.075,0.93426 -23.7,2.57836 -32.5,3.65356 -18.79117,2.29592 -19.71024,2.33282 -17.13536,0.6879 1.69905,-1.08541 14.42332,-10.55267 31.91498,-23.74576 6.77961,-5.11352 6.77961,-5.11352 4.88162,-8.27948 -1.0439,-1.74127 -3.12388,-5.30157 -4.62219,-7.91177 -2.17331,-3.78613 -3.16046,-4.65687 -4.88162,-4.30598 -1.18659,0.24191 -6.20743,1.17136 -11.15743,2.06543 -4.95,0.89408 -13.275,2.44235 -18.5,3.44061 -11.06514,2.11405 -11.45377,2.04416 -6.09877,-1.0967 35.06055,-20.56404 33.56662,-17.86261 20.93596,-37.85754 -1.91087,-3.025 -4.05437,-6.94758 -4.76334,-8.71684 -1.98716,-4.95909 -2.68015,-5.10994 -14.40005,-3.13457 -22.21173,3.74376 -25.05326,5.40552 -10.6738,6.24218 33.73118,1.96264 32.93095,5.10923 -1.29936,5.10923 -23.57539,0 -55.500562,-2.13183 -53.965513,-3.60359 0.42068,-0.40334 4.139873,-2.50338 8.264873,-4.66677 56.98525,-29.88629 62,-32.65619 62,-34.24574 0,-1.55354 -54.166145,-21.47424 -75.337835,-27.70702 -2.457876,-0.72358 0.152993,-1.81797 19.5,-8.17374 58.449475,-19.2015 104.580505,-36.41075 87.543595,-32.65828 -1.53683,0.3385 -6.03683,1.04128 -10,1.56174 -3.96317,0.52046 -13.05576,1.80034 -20.20576,2.84417 -20.35006,2.97091 -36.714313,0.55593 -18.187,-2.68398 3.813,-0.66679 3.813,-0.66679 -5,-7.06258 -11.0958,-8.05248 -43.200965,-34.33112 -43.265072,-35.41323 -0.02636,-0.44496 0.416661,-0.52188 0.984492,-0.17094 0.567831,0.35094 7.655331,2.14225 15.75,3.98069 15.216775,3.456 50.50324,12.57757 64.96758,16.79415 9.14175,2.66497 9.23576,2.6281 5.89686,-2.31275 C 154.35263,721.06696 148.6591,711.175 142.99457,701 131.59763,680.52806 123.01231,667.27228 109.96361,650 84.768083,616.64921 76.509454,602.61955 73.370897,587.8367 c -8.327835,-39.22474 30.558183,-66.29563 65.499833,-45.59836 13.85809,8.20867 19.82446,16.11946 48.55665,64.38104 14.78692,24.83766 40.65189,65.77625 41.12686,65.09482 0.0821,-0.11781 -0.41313,-6.5142 -1.10054,-14.2142 -0.6874,-7.7 -1.99334,-25.25 -2.90207,-39 -0.90873,-13.75 -2.3046,-32.55924 -3.10194,-41.79832 -3.87845,-44.94155 0.92811,-61.52905 20.72334,-71.51652 31.46581,-15.87573 53.59829,3.08338 65.15708,55.81484 1.38645,6.325 2.72716,12.4 2.97935,13.5 0.2522,1.1 0.50195,-0.475 0.55502,-3.5 0.10178,-5.80244 -2.2402,-25.27609 -3.39747,-28.25 -0.72809,-1.87104 2.01136,-2.13153 18.53299,-1.76229 6.5,0.14526 6.5,0.14526 -1,-5.05597 -4.125,-2.86068 -8.95143,-5.92809 -10.7254,-6.81648 -1.77396,-0.8884 -3.23646,-1.87633 -3.25,-2.19541 -0.0526,-1.24113 27.02059,-7.02305 36.84661,-7.86919 5.70416,-0.49119 10.69229,-1.26603 11.08471,-1.72187 1.08931,-1.26531 11.30377,-32.72139 17.91105,-55.15821 0.72891,-2.47522 0.48725,-2.85703 12.07132,19.07181 4.326,8.1892 4.50219,8.21624 6.56603,1.00761 6.90796,-24.12828 8.75411,-28.81361 10.13158,-25.7129 1.20835,2.72002 9.96107,22.01606 19.12968,42.17285 2.05393,4.51547 3.95942,8.22732 4.23442,8.24855 0.83136,0.0642 23.88393,-46.4398 29.5282,-59.56725 1.98057,-4.6064 1.11053,-6.1215 9.10679,15.85875 6.82178,18.75181 5.74596,18.36326 11.72229,4.23378 6.06281,-14.33393 4.82212,-15.25758 13.64272,10.15642 4.125,11.88498 7.95065,22.23711 8.50144,23.00474 0.85253,1.18816 3.67763,1.0947 19,-0.62852 26.26707,-2.95413 53.95964,-5.78412 54.2552,-5.54452 0.28605,0.23189 -19.99611,13.31513 -40.99045,26.44135 -7.55359,4.72271 -13.74109,9.09679 -13.75,9.72017 -0.0341,2.3887 5.48085,2.08345 13.67886,-0.75711 4.61203,-1.59804 28.72988,-7.40588 53.59522,-12.90632 24.86535,-5.50043 49.03473,-10.87234 53.70973,-11.93757 10.80928,-2.46295 18.30467,-3.47317 15.5,-2.08906 -22.28942,10.99986 -58.46619,24.40755 -77.5,28.72274 -16.95189,3.8432 -11.26303,4.27345 12.4165,0.93906 60.73947,-8.55289 58.82511,-8.3667 63.96073,-6.2209 3.38221,1.41317 6.62277,7.1475 6.62277,11.71931 0,1.1347 0.3375,1.89175 0.75,1.68233 16.57963,-8.41724 22.72565,-10.86907 31.90708,-12.72868 11.7826,-2.38645 16.9828,-2.66502 13.97113,-0.74841 -13.25277,8.43398 -52.09108,34.84873 -52.40252,35.64007 -0.25148,0.63898 6.39457,-1.22825 20.86845,-5.86306 3.39802,-1.08811 12.03465,-6.09331 22,-12.74969 9.02322,-6.02708 25.29336,-16.49574 36.15586,-23.26369 20.25633,-12.62084 21.26554,-13.45665 17.63849,-14.60783 -1.773,-0.56273 -1.89324,-0.88198 -0.75,-1.99142 2.97507,-2.88712 74.87668,-38.4389 82.87435,-40.97727 1.06483,-0.33796 -8.96495,10.23134 -22.28839,23.48735 C 788.5,510.08509 788.5,510.08509 797.5,509.42083 c 10.76655,-0.79464 10.40069,-0.0899 -2.5,4.81573 -5.225,1.98686 -17.375,6.62407 -27,10.30491 -18.69036,7.14766 -21.84302,8.28628 -54.85387,19.81114 -11.74463,4.10032 -21.82196,7.92322 -22.39405,8.49531 -0.72024,0.72024 -0.4576,0.90271 0.85387,0.59325 1.04173,-0.24582 7.4801,-1.82439 14.30749,-3.50794 23.0078,-5.67346 56.35616,-12.30897 93.08656,-18.52196 7.975,-1.34898 15.2875,-2.6987 16.25,-2.99937 3.32095,-1.03742 0.56042,3.44158 -7.60431,12.3381 -4.365,4.75623 -4.08913,5.11306 1.78859,2.31348 16.94861,-8.07271 48.42892,-18.49829 59.39959,-19.67183 7.11481,-0.76108 6.00472,0.20958 -8.1187,7.09899 -16.17931,7.89227 -12.26767,7.04516 19.78483,-4.28465 9.35,-3.305 21.5,-7.64959 27,-9.65463 5.5,-2.00505 10.8717,-3.92386 11.93712,-4.26402 1.31281,-0.41914 -0.89378,3.50201 -6.84674,12.16676 -8.70388,12.66884 -15.11135,24.46867 -19.57338,36.0459 -3.07024,7.96605 -4.00561,8.74551 -14.517,12.09724 -9,2.86979 -9,2.86979 2.5,3.50472 6.325,0.3492 12.29906,0.69412 13.27568,0.76648 2.62328,0.19436 -0.3473,5.56391 -4.57423,8.26828 C 886.5,587.185 886.5,587.185 889.5,586.55807 c 7.57805,-1.58365 7.81138,-1.86563 11.44678,-13.83354 9.68142,-31.87171 13.68358,-36.67982 30.72822,-36.91623 24.82189,-0.34429 58.48435,30.30973 57.12377,52.01858 -0.48935,7.80795 -0.75251,8.41649 -45.62209,105.49866 -17.02009,36.82554 -17.02009,36.82554 -15.13497,40.02058 20.7292,35.13337 -7.96246,73.33204 -46.76354,62.2587 -8.22184,-2.3464 -8.22184,-2.3464 -16.5,2.4823 -12.04206,7.02421 -11.75459,6.78626 -8.27817,6.85196 4.51169,0.0853 38.7763,4.17975 40.5,4.8396 1.4365,0.5499 -2.13424,1.09656 -17.5,2.67913 -23.03821,2.37279 -54.0905,7.40399 -86.97298,14.09168 -25.89435,5.26642 -25.9318,5.23 5.47298,5.32274 36.1659,0.1068 70.04054,1.42057 68.79309,2.66801 -0.20031,0.20032 -11.37321,2.16694 -24.82865,4.37026 -58.11958,9.51708 -99.39664,16.22467 -111.96444,18.1944 -8.09731,1.26908 -18.93512,3.87256 -27.08103,6.50547 C 695.4494,866.02466 688.61345,868 687.72798,868 c -0.88547,0 -1.85589,0.39794 -2.15648,0.88432 -0.8642,1.3983 20.54057,-0.89055 69.9285,-7.47756 17.06319,-2.27576 -31.46788,8.86258 -70,16.06567 -65.99739,12.33738 -83.58461,16.32186 -86.78896,19.66251 -0.98392,1.02578 -2.67689,1.86506 -3.76215,1.86506 -1.88983,0 -14.75083,3.66664 -54.81576,15.62785 -10.10178,3.01584 -32.37678,10.36147 -49.5,16.32361 -26.77786,9.32379 -50.32847,17.19134 -100.63501,33.61912 -10.68808,3.49023 -15.31029,4.39086 -11.49812,2.24039 1.1,-0.62052 5.6,-3.71269 10,-6.87149 15.80997,-11.35014 76.36786,-44.17542 85.75,-46.48062 3.59175,-0.88249 3.59175,-2.68429 0,-1.88497 -5.56183,1.23776 -6.90425,1.65745 -14.6113,4.56802 -4.32372,1.63285 -8.08176,2.74837 -8.35119,2.47893 -0.755,-0.755 11.33941,-6.67261 19.71249,-9.64503 4.125,-1.46436 8.85848,-3.36574 10.51885,-4.22529 C 500.72024,894.81024 608,858.75023 608,862.23633 c 0,0.27058 -2.1375,1.29367 -4.75,2.27354 -12.27146,4.60267 -38.85701,15.79401 -39.75,16.73299 -0.69194,0.72757 -0.38387,0.82219 1,0.30713 1.1,-0.4094 4.25,-1.40678 7,-2.21641 2.75,-0.80962 13.775,-4.33103 24.5,-7.82535 24.11207,-7.85597 60.60085,-19.444 72.14461,-22.91154 10.55373,-3.17015 15.5984,-3.44171 8.85539,-0.47669 -10.74207,4.72348 -34.95653,16.2568 -34.69035,16.52298 0.3572,0.3572 14.49814,-4.52841 24.69035,-8.53036 4.125,-1.61968 15.9375,-5.74693 26.25,-9.17168 15.46365,-5.13543 25.8088,-9.9294 16.25,-7.5303 -1.375,0.34511 -2.5,0.21947 -2.5,-0.27919 0,-2.36248 47.16139,-18.6929 76.63289,-26.53541 18.09781,-4.81592 19.83936,-5.58325 18.08812,-7.96963 -1.98274,-2.70186 -33.58109,3.61349 -103.8809,20.762 -10.08706,2.46058 -27.79011,6.75994 -39.34011,9.55414 -11.55,2.7942 -34.05,8.45733 -50,12.58474 -15.95,4.12741 -40.475,10.45655 -54.5,14.06476 -58.92382,15.15932 -60.85191,16.02498 -47.08261,21.13876 2.21647,0.82317 1.80091,1.18098 -5,4.30516 -13.69581,6.29152 -44.34523,22.21906 -52.06223,27.05511 -7.64484,4.79082 -7.64484,4.79082 -13.64219,-0.63647 -5.99735,-5.42729 -5.99735,-5.42729 -22.35516,2.39858 -27.91508,13.35507 -24.69122,12.06406 -62.85781,25.17172 -71.78975,24.65494 -81.06194,28.0556 -97.5,35.75902 -44.07668,20.65579 -56.21476,26.44027 -59.29153,28.25557 -2.76936,1.634 -6.5305,2.81 -5.12514,1.6025 z"
       id="path4"
       style="fill:#faf9f6;fill-opacity:1" />
    <path
       style="display:inline;opacity:1;mix-blend-mode:normal;fill:#00000a;fill-opacity:1"
       d="M 189.08333,1006.642 C 230.84415,970.76148 250.4343,957.53714 265,955.39444 c 7.76638,-1.14249 8.01573,-2.3301 0.5,-2.38139 -35.14291,-0.23984 -64.00741,-26.06243 -72.01095,-64.42199 -0.33382,-1.59992 -2.07337,-4.29992 -3.86567,-6 C 182.0822,875.43791 170,864.91455 170,865.49947 c 0,1.39811 2.65365,5.4177 9.00729,13.64375 5.61948,7.27551 7.26105,10.36118 10.37398,19.5 4.59901,13.50162 7.10982,19.63924 10.30293,25.18529 3.05129,5.2997 4.82277,4.51299 -14.6842,6.52122 -9.075,0.93426 -23.7,2.57836 -32.5,3.65356 -18.79117,2.29592 -19.71024,2.33282 -17.13536,0.6879 1.69905,-1.08541 14.42332,-10.55267 31.91498,-23.74576 6.77961,-5.11352 6.77961,-5.11352 4.88162,-8.27948 -1.0439,-1.74127 -3.12388,-5.30157 -4.62219,-7.91177 -2.17331,-3.78613 -3.16046,-4.65687 -4.88162,-4.30598 -1.18659,0.24191 -6.20743,1.17136 -11.15743,2.06543 -4.95,0.89408 -13.275,2.44235 -18.5,3.44061 -11.06514,2.11405 -11.45377,2.04416 -6.09877,-1.0967 35.06055,-20.56404 33.56662,-17.86261 20.93596,-37.85754 -1.91087,-3.025 -4.05437,-6.94758 -4.76334,-8.71684 -1.98716,-4.95909 -2.68015,-5.10994 -14.40005,-3.13457 -22.21173,3.74376 -25.05326,5.40552 -10.6738,6.24218 33.73118,1.96264 32.93095,5.10923 -1.29936,5.10923 -23.57539,0 -55.500562,-2.13183 -53.965513,-3.60359 0.42068,-0.40334 4.139873,-2.50338 8.264873,-4.66677 56.98525,-29.88629 62,-32.65619 62,-34.24574 0,-1.55354 -54.166145,-21.47424 -75.337835,-27.70702 -2.457876,-0.72358 0.152993,-1.81797 19.5,-8.17374 58.449475,-19.2015 104.580505,-36.41075 87.543595,-32.65828 -1.53683,0.3385 -6.03683,1.04128 -10,1.56174 -3.96317,0.52046 -13.05576,1.80034 -20.20576,2.84417 -20.35006,2.97091 -36.714313,0.55593 -18.187,-2.68398 3.813,-0.66679 3.813,-0.66679 -5,-7.06258 -11.0958,-8.05248 -43.200965,-34.33112 -43.265072,-35.41323 -0.02636,-0.44496 0.416661,-0.52188 0.984492,-0.17094 0.567831,0.35094 7.655331,2.14225 15.75,3.98069 15.216775,3.456 50.50324,12.57757 64.96758,16.79415 9.14175,2.66497 9.23576,2.6281 5.89686,-2.31275 C 154.35263,721.06696 148.6591,711.175 142.99457,701 131.59763,680.52806 123.01231,667.27228 109.96361,650 84.768083,616.64921 76.509454,602.61955 73.370897,587.8367 c -8.327835,-39.22474 30.558183,-66.29563 65.499833,-45.59836 13.85809,8.20867 19.82446,16.11946 48.55665,64.38104 14.78692,24.83766 40.65189,65.77625 41.12686,65.09482 0.0821,-0.11781 -0.41313,-6.5142 -1.10054,-14.2142 -0.6874,-7.7 -1.99334,-25.25 -2.90207,-39 -0.90873,-13.75 -2.3046,-32.55924 -3.10194,-41.79832 -3.87845,-44.94155 0.92811,-61.52905 20.72334,-71.51652 31.46581,-15.87573 53.59829,3.08338 65.15708,55.81484 1.38645,6.325 2.72716,12.4 2.97935,13.5 0.2522,1.1 0.50195,-0.475 0.55502,-3.5 0.10178,-5.80244 -2.2402,-25.27609 -3.39747,-28.25 -0.72809,-1.87104 2.01136,-2.13153 18.53299,-1.76229 6.5,0.14526 6.5,0.14526 -1,-5.05597 -4.125,-2.86068 -8.95143,-5.92809 -10.7254,-6.81648 -1.77396,-0.8884 -3.23646,-1.87633 -3.25,-2.19541 -0.0526,-1.24113 27.02059,-7.02305 36.84661,-7.86919 5.70416,-0.49119 10.69229,-1.26603 11.08471,-1.72187 1.08931,-1.26531 11.30377,-32.72139 17.91105,-55.15821 0.72891,-2.47522 0.48725,-2.85703 12.07132,19.07181 4.326,8.1892 4.50219,8.21624 6.56603,1.00761 6.90796,-24.12828 8.75411,-28.81361 10.13158,-25.7129 1.20835,2.72002 9.96107,22.01606 19.12968,42.17285 2.05393,4.51547 3.95942,8.22732 4.23442,8.24855 0.83136,0.0642 23.88393,-46.4398 29.5282,-59.56725 1.98057,-4.6064 1.11053,-6.1215 9.10679,15.85875 6.82178,18.75181 5.74596,18.36326 11.72229,4.23378 6.06281,-14.33393 4.82212,-15.25758 13.64272,10.15642 4.125,11.88498 7.95065,22.23711 8.50144,23.00474 0.85253,1.18816 3.67763,1.0947 19,-0.62852 26.26707,-2.95413 53.95964,-5.78412 54.2552,-5.54452 0.28605,0.23189 -19.99611,13.31513 -40.99045,26.44135 -7.55359,4.72271 -13.74109,9.09679 -13.75,9.72017 -0.0341,2.3887 5.48085,2.08345 13.67886,-0.75711 4.61203,-1.59804 28.72988,-7.40588 53.59522,-12.90632 24.86535,-5.50043 49.03473,-10.87234 53.70973,-11.93757 10.80928,-2.46295 18.30467,-3.47317 15.5,-2.08906 -22.28942,10.99986 -58.46619,24.40755 -77.5,28.72274 -16.95189,3.8432 -11.26303,4.27345 12.4165,0.93906 60.73947,-8.55289 58.82511,-8.3667 63.96073,-6.2209 3.38221,1.41317 6.62277,7.1475 6.62277,11.71931 0,1.1347 0.3375,1.89175 0.75,1.68233 16.57963,-8.41724 22.72565,-10.86907 31.90708,-12.72868 11.7826,-2.38645 16.9828,-2.66502 13.97113,-0.74841 -13.25277,8.43398 -52.09108,34.84873 -52.40252,35.64007 -0.25148,0.63898 6.39457,-1.22825 20.86845,-5.86306 3.39802,-1.08811 12.03465,-6.09331 22,-12.74969 9.02322,-6.02708 25.29336,-16.49574 36.15586,-23.26369 20.25633,-12.62084 21.26554,-13.45665 17.63849,-14.60783 -1.773,-0.56273 -1.89324,-0.88198 -0.75,-1.99142 2.97507,-2.88712 74.87668,-38.4389 82.87435,-40.97727 1.06483,-0.33796 -8.96495,10.23134 -22.28839,23.48735 C 788.5,510.08509 788.5,510.08509 797.5,509.42083 c 10.76655,-0.79464 10.40069,-0.0899 -2.5,4.81573 -5.225,1.98686 -17.375,6.62407 -27,10.30491 -18.69036,7.14766 -21.84302,8.28628 -54.85387,19.81114 -11.74463,4.10032 -21.82196,7.92322 -22.39405,8.49531 -0.72024,0.72024 -0.4576,0.90271 0.85387,0.59325 1.04173,-0.24582 7.4801,-1.82439 14.30749,-3.50794 23.0078,-5.67346 56.35616,-12.30897 93.08656,-18.52196 7.975,-1.34898 15.2875,-2.6987 16.25,-2.99937 3.32095,-1.03742 0.56042,3.44158 -7.60431,12.3381 -4.365,4.75623 -4.08913,5.11306 1.78859,2.31348 16.94861,-8.07271 48.42892,-18.49829 59.39959,-19.67183 7.11481,-0.76108 6.00472,0.20958 -8.1187,7.09899 -16.17931,7.89227 -12.26767,7.04516 19.78483,-4.28465 9.35,-3.305 21.5,-7.64959 27,-9.65463 5.5,-2.00505 10.8717,-3.92386 11.93712,-4.26402 1.31281,-0.41914 -0.89378,3.50201 -6.84674,12.16676 -8.70388,12.66884 -15.11135,24.46867 -19.57338,36.0459 -3.07024,7.96605 -4.00561,8.74551 -14.517,12.09724 -9,2.86979 -9,2.86979 2.5,3.50472 6.325,0.3492 12.29906,0.69412 13.27568,0.76648 2.62328,0.19436 -0.3473,5.56391 -4.57423,8.26828 C 886.5,587.185 886.5,587.185 889.5,586.55807 c 7.57805,-1.58365 7.81138,-1.86563 11.44678,-13.83354 9.68142,-31.87171 13.68358,-36.67982 30.72822,-36.91623 24.82189,-0.34429 58.48435,30.30973 57.12377,52.01858 -0.48935,7.80795 -0.75251,8.41649 -45.62209,105.49866 -17.02009,36.82554 -17.02009,36.82554 -15.13497,40.02058 20.7292,35.13337 -7.96246,73.33204 -46.76354,62.2587 -8.22184,-2.3464 -8.22184,-2.3464 -16.5,2.4823 -12.04206,7.02421 -11.75459,6.78626 -8.27817,6.85196 4.51169,0.0853 38.7763,4.17975 40.5,4.8396 1.4365,0.5499 -2.13424,1.09656 -17.5,2.67913 -23.03821,2.37279 -54.0905,7.40399 -86.97298,14.09168 -25.89435,5.26642 -25.9318,5.23 5.47298,5.32274 36.1659,0.1068 70.04054,1.42057 68.79309,2.66801 -0.20031,0.20032 -11.37321,2.16694 -24.82865,4.37026 -58.11958,9.51708 -99.39664,16.22467 -111.96444,18.1944 -8.09731,1.26908 -18.93512,3.87256 -27.08103,6.50547 C 695.4494,866.02466 688.61345,868 687.72798,868 c -0.88547,0 -1.85589,0.39794 -2.15648,0.88432 -0.8642,1.3983 20.54057,-0.89055 69.9285,-7.47756 17.06319,-2.27576 -31.46788,8.86258 -70,16.06567 -65.99739,12.33738 -83.58461,16.32186 -86.78896,19.66251 -0.98392,1.02578 -2.67689,1.86506 -3.76215,1.86506 -1.88983,0 -14.75083,3.66664 -54.81576,15.62785 -10.10178,3.01584 -32.37678,10.36147 -49.5,16.32361 -26.77786,9.32379 -50.32847,17.19134 -100.63501,33.61912 -10.68808,3.49023 -15.31029,4.39086 -11.49812,2.24039 1.1,-0.62052 5.6,-3.71269 10,-6.87149 15.80997,-11.35014 76.36786,-44.17542 85.75,-46.48062 3.59175,-0.88249 3.59175,-2.68429 0,-1.88497 -5.56183,1.23776 -6.90425,1.65745 -14.6113,4.56802 -4.32372,1.63285 -8.08176,2.74837 -8.35119,2.47893 -0.755,-0.755 11.33941,-6.67261 19.71249,-9.64503 4.125,-1.46436 8.85848,-3.36574 10.51885,-4.22529 C 500.72024,894.81024 608,858.75023 608,862.23633 c 0,0.27058 -2.1375,1.29367 -4.75,2.27354 -12.27146,4.60267 -38.85701,15.79401 -39.75,16.73299 -0.69194,0.72757 -0.38387,0.82219 1,0.30713 1.1,-0.4094 4.25,-1.40678 7,-2.21641 2.75,-0.80962 13.775,-4.33103 24.5,-7.82535 24.11207,-7.85597 60.60085,-19.444 72.14461,-22.91154 10.55373,-3.17015 15.5984,-3.44171 8.85539,-0.47669 -10.74207,4.72348 -34.95653,16.2568 -34.69035,16.52298 0.3572,0.3572 14.49814,-4.52841 24.69035,-8.53036 4.125,-1.61968 15.9375,-5.74693 26.25,-9.17168 15.46365,-5.13543 25.8088,-9.9294 16.25,-7.5303 -1.375,0.34511 -2.5,0.21947 -2.5,-0.27919 0,-2.36248 47.16139,-18.6929 76.63289,-26.53541 18.09781,-4.81592 19.83936,-5.58325 18.08812,-7.96963 -1.98274,-2.70186 -33.58109,3.61349 -103.8809,20.762 -10.08706,2.46058 -27.79011,6.75994 -39.34011,9.55414 -11.55,2.7942 -34.05,8.45733 -50,12.58474 -15.95,4.12741 -40.475,10.45655 -54.5,14.06476 -58.92382,15.15932 -60.85191,16.02498 -47.08261,21.13876 2.21647,0.82317 1.80091,1.18098 -5,4.30516 -13.69581,6.29152 -44.34523,22.21906 -52.06223,27.05511 -7.64484,4.79082 -7.64484,4.79082 -13.64219,-0.63647 -5.99735,-5.42729 -5.99735,-5.42729 -22.35516,2.39858 -27.91508,13.35507 -24.69122,12.06406 -62.85781,25.17172 -71.78975,24.65494 -81.06194,28.0556 -97.5,35.75902 -44.07668,20.65579 -56.21476,26.44027 -59.29153,28.25557 -2.76936,1.634 -6.5305,2.81 -5.12514,1.6025 z M 297,924.06409 c 15.91954,-4.55452 38.12948,-18.61189 45.77994,-28.97558 2.66447,-3.60942 2.40117,-3.73171 -2.57198,-1.19461 -7.2934,3.72082 -33.56562,10.83993 -28.82289,7.81028 28.44332,-18.16956 38.95036,-26.54897 39.44075,-31.45418 0.39456,-3.9467 1.19248,-3.97203 -8.60359,0.27314 -8.26481,3.5816 -28.79161,9.45888 -33.0763,9.47048 -2.21868,0.006 -2.11538,-0.26679 1.79635,-4.74362 20.35953,-23.30076 27.24077,-33.02616 35.01732,-49.49074 7.27684,-15.40657 7.34967,-16.12175 1.06643,-10.47257 -17.82118,16.02277 -36.8989,16.15388 -54.70309,0.37594 -12.56264,-11.13292 -18.71515,-12.60094 -7.98471,-1.9052 4.22729,4.21362 8.63204,9.61544 9.78835,12.00404 3.22988,6.67206 1.55411,6.67988 -3.41225,0.0159 -16.29168,-21.86041 -59.03129,-16.93952 -83.50825,9.61485 -4.26603,4.6281 -4.26603,4.6281 -7.36214,3.02704 -3.09611,-1.60106 -3.09611,-1.60106 1.99656,-6.76018 5.09267,-5.15912 5.09267,-5.15912 -4.12392,-5.15912 -11.424,0 -16.68387,-1.85312 -22.72159,-8.00511 -5.04964,-5.1452 -4.7178,-5.66337 1.14302,-1.78486 7.76838,5.14087 23.11791,3.76415 34.29687,-3.07614 3.93487,-2.40771 3.93487,-2.40771 -1.78818,-3.68847 -10.21994,-2.28713 -9.86126,-3.4871 1.05378,-3.5254 C 230.06617,806.34855 261,793.35087 261,784.86514 261,783.83931 261.40217,783 261.8937,783 c 1.31065,0 -0.67042,7.93056 -2.94944,11.80716 -3.42311,5.82267 -1.55795,5.85793 4.05263,0.0766 9.12269,-9.40031 9.2981,-28.01709 0.35722,-37.91357 -12.31027,-13.626 -36.77829,-13.02604 -74.85411,1.83542 -9.03594,3.52683 -9.22304,3.54969 -6,0.73304 3.48602,-3.04648 14.38446,-8.48204 23,-11.47118 6,-2.08169 6,-2.08169 -0.5,-1.51644 -75.72982,6.58557 -63.4044,90.22347 19.5,132.32314 26.59183,13.5036 59.64633,5.56069 70.36709,-16.90901 2.13042,-4.46517 2.13042,-4.46517 1.60326,-0.46517 -2.80314,21.26952 -17.08954,32.0695 -44.1396,33.36789 -7.2431,0.34766 -13.44968,0.91369 -13.7924,1.25784 -0.7176,0.72058 7.56679,6.79249 11.84088,8.67859 4.65329,2.05343 2.41753,2.35708 -4.48008,0.60846 -7.05341,-1.78811 -19.25558,-7.10626 -23.91125,-10.4214 -5.32553,-3.79211 -0.75973,7.69961 6.65365,16.74667 11.32964,13.82633 43.09441,19.55398 68.35845,12.32604 z m 74.67033,-9.09135 c 10.35632,-4.415 19.77551,-8.42498 20.93154,-8.91107 1.66628,-0.70065 2.23789,-2.09385 2.75824,-6.72274 1.10174,-9.80082 5.80922,-38.76732 6.49504,-39.96587 0.37756,-0.65983 6.4478,5.13598 14.64485,13.98277 31.79689,34.31726 28.74486,32.30536 39.5,26.03837 5.225,-3.04459 14.44364,-8.03579 20.48587,-11.09156 10.27015,-5.19397 10.85649,-5.64911 9,-6.9861 C 463.06281,865.16813 429,836.95242 429,834.52682 429,830.77633 463.9756,783.89378 476.39266,771 491.41669,755.39916 493.85887,752.56338 491.5,753.45778 c -1.1,0.41708 -9.2,2.53438 -18,4.70511 -36.20418,8.93063 -31.35109,5.26869 -49.48201,37.33711 -11.47587,20.29752 -19.05048,32.83641 -19.51042,32.29721 -0.47401,-0.55569 10.23436,-62.61815 11.36274,-65.85503 1.12247,-3.21991 1.12247,-3.21991 -4.0406,-2.60842 -4.8121,0.56992 -30.72069,8.67879 -33.6403,10.52874 -1.20813,0.76551 -5.68614,25.70921 -12.14258,67.6375 -2.79805,18.17056 -12.98816,81.47949 -13.48029,83.75 -0.49024,2.26186 -2.39367,2.88731 19.10379,-6.27726 z M 486.16005,864.07057 C 493.01786,862.6469 493,862.70351 493,842.38412 c 0,-14.36589 0,-14.36589 9.98183,-19.375 C 508.47184,820.2541 513.36705,818 513.86009,818 c 0.49303,0 1.22343,8.28548 1.62312,18.41217 0.72669,18.41217 0.72669,18.41217 5.37174,15.68407 5.08353,-2.98564 17.30288,-8.59773 20.935,-9.61501 2.28369,-0.63961 2.28954,-0.68971 2.13617,-18.3113 -0.15379,-17.66993 -0.15379,-17.66993 3.71004,-19.73667 3.86384,-2.06674 3.86384,-2.06674 4.95681,-11.5 1.36931,-11.81841 2.01727,-11.54404 -12.84297,-5.43832 -0.99901,0.41047 -1.75,0.27727 -1.75,-0.3104 0,-0.56619 1.57845,-1.55037 3.50768,-2.18707 4.7737,-1.57547 4.99802,-2.20584 7.47411,-21.0034 2.09885,-15.93371 3.25459,-21.99326 5.10091,-26.74407 1.35672,-3.49102 -0.92968,-2.88709 -17.5827,4.64434 -15,6.78384 -15,6.78384 -16.16402,16.69475 -1.99795,17.01126 -1.99148,17.05615 2.41402,16.74135 3.75,-0.26796 3.75,-0.26796 0.25,0.88933 -4.44561,1.46996 -4.63231,1.78373 -5.44592,9.15266 -1.14948,10.41101 -0.94714,10.1295 -10.10931,14.06552 -4.60845,1.97977 -8.99206,3.83484 -9.74138,4.12237 -1.08521,0.41644 -0.89817,-2.32482 0.91938,-13.47409 2.8849,-17.6967 4.14627,-27.08623 3.6387,-27.08623 -1.74813,0 -28.47341,14.5275 -29.19062,15.86762 -0.98751,1.84517 -3.41061,17.67701 -7.51985,49.13238 -1.40108,10.725 -2.73763,20.9175 -2.97011,22.65 -0.48358,3.60376 0.57925,4.81684 9.8749,11.27089 3.27568,2.27433 6.43723,3.9504 7.02566,3.7246 0.58844,-0.2258 3.59381,-0.93452 6.6786,-1.57492 z M 347.40278,850.22628 c 1.50186,-3.45054 2.92583,-7.95054 3.16438,-10 0.35945,-3.08817 0.28196,-3.29817 -0.45252,-1.22628 -1.27462,3.59557 -5.39562,12.07761 -7.28774,15 -0.89026,1.375 -1.93673,3.625 -2.32549,5 -1.35497,4.79239 3.90999,-1.90096 6.90137,-8.77372 z m 215.33285,-5.32583 c 13.24596,-4.08801 13.04412,-3.90014 14.94759,-13.91246 2.03224,-10.68968 1.38157,-10.09461 17.36343,-15.87958 7.39934,-2.67835 14.24085,-5.19658 15.20335,-5.59606 0.9625,-0.39948 1.75298,-0.56568 1.75663,-0.36934 0.004,0.19635 0.90066,5.53199 1.99337,11.85699 1.09271,6.325 1.98972,11.62107 1.99337,11.76905 0.0296,1.20133 14.10137,-4.30431 15.09006,-5.90405 0.34296,-0.55492 1.70199,-1.17389 3.02007,-1.37548 1.31807,-0.20159 5.05385,-1.2942 8.30173,-2.42802 3.24787,-1.13383 6.73537,-2.0615 7.75,-2.0615 2.11553,0 2.22639,-0.35946 0.8523,-2.76357 C 649.46417,815.53617 640,789.90099 640,788.42082 c 0,-0.1122 1.11201,-0.4831 2.47114,-0.82422 1.35912,-0.34112 2.97274,-1.55748 3.58582,-2.70304 0.96217,-1.79782 0.86349,-2.01417 -0.72113,-1.58113 -7.20709,1.9695 -6.88339,2.13928 -8.73803,-4.58309 C 633.4262,767.23342 620.89414,729 620.29764,729 c -1.95118,0 -40.37182,13.54945 -43.04764,15.18121 -3.66728,2.23637 -3.78722,2.53694 -1.8916,4.74005 3.92616,4.56302 3.74269,7.31625 -1.31828,19.78202 -2.64417,6.51292 -7.55591,19.16961 -10.91497,28.12596 -3.35905,8.95636 -7.23637,18.21078 -8.61626,20.56538 -1.37989,2.3546 -2.50889,5.61189 -2.50889,7.23841 0,2.40157 -3.22109,16.51251 -5.62358,24.63577 -0.48687,1.64619 -0.29275,1.66558 2.80022,0.2797 1.82785,-0.819 7.92939,-2.91063 13.55899,-4.64805 z m 23.62328,-42.54939 c 3.85728,-10.97716 16.20035,-41.12345 16.70887,-40.80917 0.36429,0.22514 0.91654,2.10782 1.22724,4.18373 0.84263,5.63008 4.6454,25.5113 5.23497,27.36887 0.40383,1.27234 -1.46059,2.31556 -8.75848,4.90074 -5.09933,1.80637 -10.57461,3.94189 -12.16728,4.7456 -2.70743,1.36625 -2.85346,1.3409 -2.24532,-0.38977 z m 78.37913,12.52376 c 20.05226,-6.4195 20.56187,-6.80838 19.80832,-15.11511 -1.20105,-13.23978 -4.55601,-41.61623 -5.1374,-43.45242 -1.04346,-3.29559 4.5399,5.07537 27.62492,41.41715 5.85955,9.22444 5.85955,9.22444 9.66283,7.91389 2.09181,-0.72081 7.67485,-2.14626 12.40676,-3.16767 8.60348,-1.85712 8.60348,-1.85712 9.25008,-15.91389 1.05098,-22.84773 9.43097,-66.46045 18.06498,-94.01711 1.37176,-4.37819 2.32189,-8.13257 2.1114,-8.34307 -0.42279,-0.42278 -39.62214,12.62433 -41.598,13.84548 -1.47801,0.91346 -1.81945,32.75176 -0.54649,50.95793 0.98938,14.15028 0.63153,13.83436 -5.9186,-5.22519 -4.60249,-13.39231 -13.8512,-37.96967 -14.96895,-39.77823 -0.34506,-0.55832 -29.45531,8.79596 -36.59075,11.75807 -3.09594,1.2852 -3.91294,9.69803 -3.89921,40.15091 0.004,9.67694 -0.52001,26.37996 -1.16528,37.11782 C 652.80374,810.31167 653.00827,818 654.50709,818 c 0.25795,0 4.86188,-1.40633 10.23095,-3.12518 z M 705.67316,745.25 c -0.88351,-1.48948 -6.67076,-22.8765 -6.57429,-24.29557 0.13884,-2.04252 4.85822,12.9338 7.18339,22.79557 0.52704,2.23532 0.24258,2.93582 -0.6091,1.5 z m -378.14208,64.80932 c 41.10908,-20.23794 49.10689,-85.40515 10.4974,-85.53416 -12.33592,-0.0412 -15.72097,2.50598 -16.43699,12.3686 C 320.40503,753.23644 309.21686,793 305.80502,793 c -0.44276,0 -0.81503,-3.4875 -0.82726,-7.75 -0.0255,-8.88472 -2.13751,-8.07605 -5.58156,2.1371 -6.8991,20.45894 8.09194,32.53932 28.13488,22.67222 z M 323.5,801.34342 c 9.686,-5.08999 17.94528,-14.24955 24.65591,-27.34342 1.55031,-3.025 2.82446,-4.89081 2.83142,-4.14623 0.0762,8.13873 -22.0265,33.30599 -29.07488,33.10619 -0.77685,-0.022 -0.0624,-0.74946 1.58755,-1.61654 z M 351,767.5 c 0,-0.275 0.225,-0.5 0.5,-0.5 0.275,0 0.5,0.225 0.5,0.5 0,0.275 -0.225,0.5 -0.5,0.5 -0.275,0 -0.5,-0.225 -0.5,-0.5 z m 407.33366,28.09205 c 17.68852,-5.39624 15.79646,-3.71482 19.01089,-16.89436 1.5466,-6.34124 3.33928,-12.19794 3.98373,-13.01488 1.68348,-2.13409 32.70883,-11.78907 33.1973,-10.33088 0.31736,0.9474 3.22044,16.46657 5.22392,27.92581 0.2671,1.52775 1.36764,3.24977 2.44563,3.82669 1.10353,0.59059 1.72127,1.67106 1.41367,2.47263 -0.47071,1.22665 -0.10087,1.23109 2.67244,0.0321 1.77032,-0.76537 6.59376,-2.82244 10.71876,-4.57126 10.33265,-4.3806 21,-9.32322 21,-9.73016 0,-0.18592 -1.3265,-2.69371 -2.94778,-5.57288 C 852.78932,765.71625 842,741.44343 842,740.37117 c 0,-0.11316 2.1375,-0.99001 4.75,-1.94854 6.52585,-2.39436 6.97559,-2.96224 8.64136,-10.91136 1.83781,-8.77014 2.45558,-8.5036 -9.46279,-4.0827 -11.07503,4.10809 -14.01164,4.16743 -6.028,0.12182 5.94773,-3.01395 5.76848,-2.04238 2.6511,-14.36917 -2.37815,-9.4037 -6.25196,-29.35291 -9.11328,-46.93122 -0.70606,-4.33764 -2.05074,-4.25339 -17.98003,1.12652 -19.6528,6.63748 -21.32466,7.41875 -20.73127,9.68786 0.4308,1.64741 -0.0258,1.93562 -3.06635,1.93562 -5.06597,0 -12.30542,12.75514 -25.77125,45.40625 -5.28824,12.8226 -5.76461,15.53382 -1.38612,7.88892 7.41101,-12.9397 24.04032,-39.28982 25.03673,-39.67218 3.44469,-1.32185 -35.46028,73.31682 -38.98322,74.7888 -1.95629,0.81739 -3.55688,2.18412 -3.55688,3.03718 0,1.84832 1.15069,2.00034 2.78333,0.3677 1.64096,-1.64096 2.58926,-0.38137 1.39413,1.85175 -4.49529,8.39952 -8.78584,32.16275 -5.58537,30.93462 0.86637,-0.33246 6.60008,-2.13741 12.74157,-4.01099 z m -6.25033,-2.97923 c 1.01088,-0.93933 15.15258,-4.44873 14.23686,-3.53301 -0.56251,0.56251 -3.45218,1.66933 -6.42147,2.4596 -5.23655,1.39369 -8.66712,1.86486 -7.81539,1.07341 z M 789.50098,745.25 c 0.39323,-0.9625 3.31842,-8.5 6.50043,-16.75 9.71707,-25.19346 8.7173,-24.745 12.35819,-5.54336 3.47357,18.31925 4.14082,16.67893 -8.41042,20.67565 -12.36881,3.93863 -11.33074,3.77791 -10.4482,1.61771 z m 104.55026,25.1256 c 9.85771,-5.36524 14.37167,-14.56021 12.20914,-24.87012 -5.55416,-26.47965 -45.16072,-23.24933 -47.96401,3.91195 -1.88324,18.24679 18.63691,30.27493 35.75487,20.95817 z m -595.64837,-4.19889 c 13.67553,-9.37909 17.14162,-49.42622 6.19267,-71.55003 -1.37572,-2.77983 -2.33809,-5.21747 -2.13859,-5.41697 C 303.70489,687.96178 318,711.19533 318,714.4715 c 0,0.95931 0.46682,1.35802 1.11846,0.95529 0.73787,-0.45603 0.96752,-3.4536 0.67488,-8.80902 -1.95375,-35.75476 -48.48592,-49.92254 -58.37804,-17.77453 -3.94414,12.81793 -2.03476,47.95818 2.77966,51.15676 7.80834,5.18766 11.55414,10.09201 16.18941,21.19661 3.95881,9.48403 9.29921,10.96006 18.0185,4.9801 z m 106.38929,-23.76494 c 14.0615,-2.89743 34.43547,-12.90481 43.75276,-21.49068 1.84485,-1.70003 1.73322,-0.93224 -1.14088,7.84726 -4.96119,15.15487 -4.99082,15.40596 -1.66823,14.13845 1.5203,-0.57997 9.51419,-3.55472 17.76419,-6.61054 16.77899,-6.21499 16.05471,-5.67116 16.87967,-12.67431 4.60582,-39.09926 8.11559,-58.8267 10.7042,-60.16532 2.44591,-1.26483 2.68271,-1.98812 3.32607,-10.15921 0.38097,-4.83858 1.14916,-10.53034 1.70709,-12.64836 0.55793,-2.11802 0.77661,-4.08875 0.48596,-4.3794 -1.62408,-1.62408 -60.84733,14.28057 -78.21583,21.00519 -8.11283,3.14107 -8.11283,3.14107 -8.75147,12.18311 -0.35126,4.97312 -0.92608,11.63091 -1.27738,14.79508 -0.76558,6.89548 -2.05712,6.91038 22.14169,-0.25547 26.4296,-7.82643 26.49856,-7.79989 10.73009,4.13015 -37.58207,28.43368 -68.6495,23.62222 -57.23166,-8.86357 5.65746,-16.09651 27.78127,-38.07619 47.82066,-47.50914 10.55682,-4.96931 11.66242,-4.63595 10.83636,3.26737 -0.74965,7.17225 -1.22838,7.0937 7.09093,1.16343 C 462.05098,627.41472 491.40801,612 495.8078,612 c 0.72063,0 1.03787,-0.4407 0.70497,-0.97933 -1.481,-2.39631 2.36423,-5.43119 14.1842,-11.19502 C 522.67992,593.98236 531,591.24026 531,593.13427 531,593.61042 530.45709,594 529.79354,594 527.86331,594 510,604.98175 510,606.16839 c 0,0.74276 0.38753,0.75782 1.25,0.0486 0.6875,-0.56536 3.95,-1.7852 7.25,-2.71076 3.3,-0.92556 17.25,-4.9992 31,-9.05253 13.75,-4.05333 33.55,-9.45327 44,-11.99987 10.45,-2.5466 19.9,-4.98221 21,-5.41246 2.01959,-0.78993 11.47858,-31.3961 10.12229,-32.75239 -2.04647,-2.04648 -50.41531,8.52508 -72.62229,15.87242 -13.89836,4.59837 -26.00335,7.82352 -25.99368,6.92553 0.0133,-1.23029 9.72776,-6.54005 18.3732,-10.04245 5.47582,-2.21834 5.75046,-2.48122 4,-3.82863 -1.73661,-1.33674 -1.65141,-1.39844 1.12048,-0.81139 9.24322,1.95757 11.06932,2.00314 9.61304,0.2399 -1.61496,-1.95538 -14.16031,-9.07921 -22.11304,-12.55682 -3.025,-1.32278 -8.75071,-3.93075 -12.72381,-5.79549 -6.01376,-2.8225 -7.58035,-3.19962 -9.35231,-2.25129 -1.90755,1.02089 -0.35007,2.017 15.00393,9.59596 16.29274,8.04235 19.31787,10.39947 13.26317,10.33437 -4.37862,-0.0471 -41.63272,4.29961 -42.34372,4.94053 -0.359,0.32362 -0.79205,8.2384 -0.96232,17.5884 -0.17028,9.35 -0.44361,17.30192 -0.60742,17.67093 -0.1638,0.36902 -2.88075,-0.89031 -6.03767,-2.79849 -3.15692,-1.90819 -8.43985,-4.83085 -11.73985,-6.49481 -3.3,-1.66396 -6.75919,-3.53448 -7.6871,-4.15671 -2.1784,-1.46079 -18.39086,0.47606 -31.21496,3.72916 -41.72638,10.58477 -100.12172,65.67216 -99.91375,94.25389 0.0379,5.20398 0.0379,5.20398 -5.90745,-0.68627 -9.34731,-9.26073 -23.66058,-18.13254 -23.84703,-14.78112 -0.0387,0.69486 -0.45702,0.3634 -0.92971,-0.7366 -0.47269,-1.1 -0.94281,-7.4 -1.04471,-14 -0.13708,-8.87787 -0.38749,-10.95929 -0.96246,-8 -1.27435,6.55894 -1.62587,25.99689 -0.47016,25.99854 7.70864,0.011 27.7117,23.76808 35.96645,42.71631 2.70705,6.21387 2.90334,6.40507 7.75951,7.55862 11.02659,2.61929 23.83562,11.8623 28.91749,20.86688 3.38862,6.00431 4.40918,6.998 7.83388,7.62765 4.71619,0.86709 7.09771,0.72924 14.79216,-0.85623 z M 350.05833,671.5 c -0.20963,-6.94138 26.32928,-41.41688 35.70831,-46.38704 1.24666,-0.66063 -2.16292,3.2062 -7.57684,8.59295 -9.009,8.96379 -17.8391,20.87914 -25.89553,34.94348 -1.21316,2.11784 -2.21933,3.40061 -2.23594,2.85061 z m 295.32839,58.13722 c -0.60927,-5.86279 -0.60927,-5.86279 -4.1219,-5.29277 -5.03325,0.81679 -5.03858,0.88987 -0.71161,9.76468 4.50661,9.24329 6.10513,7.76436 4.83351,-4.47191 z M 202,736.47561 c 5.54156,-0.98529 16.75305,-1.84887 26.90686,-2.07254 20.67565,-0.45546 18.45808,1.08036 15.79775,-10.94101 C 242.04952,711.46438 241.26714,711.09128 218,710.72701 210.025,710.60216 202.99218,710.05078 202.37152,709.50174 200.87847,708.18097 214.80236,704 220.69398,704 c 5.21291,0 5.23613,-0.20749 0.72793,-6.5032 -4.50815,-6.29564 -15.24104,-24.43726 -38.15737,-64.4968 -41.26984,-72.14288 -54.96735,-86.73474 -76.08166,-81.04925 -22.334255,6.014 -20.16705,36.78749 4.82754,68.54925 22.3198,28.36278 31.1701,41.02309 44.77781,64.05448 3.9172,6.62996 8.04234,12.8872 9.16698,13.90498 1.12463,1.01779 2.04479,2.39242 2.04479,3.05476 0,0.66233 1.43079,3.85509 3.17954,7.09501 1.74874,3.23992 4.5859,9.04077 6.3048,12.89077 1.71889,3.85 4.36881,9.40815 5.88871,12.35144 3.13162,6.06441 0.98156,5.76151 18.62695,2.62417 z m 307.13992,-6.45627 c 5.14804,-1.08937 12.51008,-2.68325 16.36008,-3.54196 3.85,-0.85871 9.33305,-2.04863 12.18455,-2.64425 5.08688,-1.06255 5.22666,-1.18892 7.41941,-6.70804 4.09609,-10.30983 13.74418,-28.82541 20.99443,-40.29031 14.97946,-23.68716 48.21791,-79.85181 47.614,-80.45572 -0.1892,-0.18921 -3.01439,0.0806 -6.2782,0.59955 -3.2638,0.51896 -10.43419,1.64187 -15.93419,2.49536 -18.36548,2.84995 -19.69206,3.30327 -17.85795,6.10247 1.52108,2.32148 1.24455,2.91163 -9.06704,19.35031 -5.84979,9.32569 -12.37049,19.92399 -14.49045,23.55179 -4.34171,7.42976 -3.02748,9.38342 -12.99776,-19.32174 -2.16693,-6.23877 -4.17457,-11.5779 -4.46141,-11.86474 -0.28685,-0.28685 -6.7324,1.16236 -14.32346,3.22047 -7.59106,2.0581 -15.05292,3.96279 -16.5819,4.23263 -2.29345,0.40477 -2.66749,0.86377 -2.13725,2.62274 1.73632,5.75993 21.90113,53.97315 23.0575,55.12952 1.88049,1.8805 0.51435,4.78529 -13.28042,28.23778 -6.39412,10.87064 -11.81742,20.1023 -12.05178,20.5148 -0.65863,1.15925 1.69431,0.91452 11.83184,-1.23066 z M 596.5,722.4595 c 29.97948,-8.89322 71.21167,-27.08116 68.20634,-30.0865 -0.97714,-0.97713 -53.49411,17.60562 -68.70634,24.31125 -6.68111,2.94507 -15.08635,10.57359 -9.75,8.84901 0.6875,-0.22218 5.3,-1.60538 10.25,-3.07376 z M 903.29344,712.25 c 0.83082,-2.0625 9.60048,-21.075 19.48812,-42.25 40.17735,-86.04228 42.48987,-91.66561 39.80772,-96.79966 -4.29306,-8.21757 -26.46402,-19.03706 -32.95229,-16.0808 -3.43989,1.56731 -6.17538,8.7539 -16.13164,42.38046 -2.93123,9.9 -9.24281,30.825 -14.02573,46.5 -4.78292,15.675 -10.19146,33.45 -12.01897,39.5 -1.82751,6.05 -4.41908,14.6 -5.75903,19 -2.43628,8 -2.43628,8 4.44173,8.72417 3.7829,0.3983 8.3357,1.14522 10.11733,1.65982 5.08721,1.46937 5.43181,1.34031 7.03276,-2.63399 z M 941.5,569.60018 c -9.19039,-4.66096 -13.28207,-7.20275 -11.91021,-7.39874 4.54216,-0.64891 24.40742,9.74295 25.85976,13.52769 0.26822,0.69898 0.3893,1.20345 0.26907,1.12105 -0.12024,-0.0824 -6.51862,-3.3449 -14.21862,-7.25 z M 246.07202,691.28359 c 6.45107,-19.38547 17.58236,-29.17505 37.15546,-32.67693 7.11121,-1.27228 7.42739,-2.04809 9.8246,-24.10666 6.28798,-57.86038 -11.7382,-119.5 -34.94714,-119.5 -19.67561,0 -22.33157,11.74601 -18.63711,82.42277 2.24335,42.91627 2.06546,41.75541 6.27753,40.96522 3.91999,-0.73539 3.46974,1.94708 -0.83261,4.96057 -2.44988,1.71596 -2.44904,1.70324 -2.13811,32.40144 0.25272,24.95159 0.21788,24.78747 3.29738,15.53359 z m 374.97267,-3.30743 c 15.54469,-5.23997 15.54469,-5.23997 17.57825,-14.60806 1.11846,-5.15246 1.67838,-9.3681 1.24427,-9.3681 -0.43412,0 -1.70747,-0.98554 -2.82969,-2.1901 -2.34163,-2.51345 -1.30671,-3.76911 3.12752,-3.79459 2.62547,-0.0151 2.73089,-0.28626 7.10082,-18.26531 2.74698,-11.30179 4.66535,-17.48855 5.03876,-16.25 0.33164,1.1 2.62337,10.7121 5.09274,21.36022 5.33436,23.00224 3.54619,20.65065 14.10799,18.5531 9.56184,-1.89896 9.63678,-1.96791 28.99465,-26.67572 7.64588,-9.75899 8.54978,-10.15414 7.85909,-3.43578 -1.7459,16.9826 -6.37449,39.75686 -10.00057,49.20628 -0.83786,2.18343 -1.5807,2.33277 23.77894,-4.78043 C 740.77493,672.5 740.77493,672.5 741.35752,668 c 4.65572,-35.96138 15.22596,-84.91266 23.07809,-106.87573 0.86042,-2.40665 1.56439,-4.47473 1.56439,-4.59574 0,-0.12101 -3.2625,0.40092 -7.25,1.15985 C 740.12821,561.23262 712.03881,566 709.778,566 c -2.04536,0 -2.88677,0.88137 -4.53462,4.75 -1.11279,2.6125 -6.94466,15.775 -12.95971,29.25 -6.01504,13.475 -11.30604,25.4 -11.75777,26.5 -1.0138,2.46866 -1.41189,0.54915 -5.52044,-26.61794 -3.41336,-22.57022 -3.50067,-22.88414 -6.36245,-22.87587 -7.90664,0.0228 -40.32062,5.21155 -41.63431,6.66467 -0.41227,0.45603 -4.84276,13.87914 -9.84552,29.82914 -11.8037,37.63304 -25.18446,80.54158 -25.78549,82.68723 -0.5332,1.90349 0.55524,1.60224 29.667,-8.21107 z m 241.88784,-2.9949 c -1.7587,-14.02257 -7.54569,-28.90654 -14.9915,-38.5577 -7.19388,-9.3246 -8.25935,-7.08825 -1.44497,3.03293 6.49844,9.65193 10.89875,20.21579 14.64867,35.16719 2.55876,10.2021 3.03442,10.29724 1.7878,0.35758 z M 335.02898,642.0725 c 14.62681,-17.5236 41.29933,-39.43265 61.47102,-50.49285 3,-1.64491 3,-1.64491 -0.5,-0.99762 -15.52632,2.87146 -47.67019,25.18693 -67.92609,47.15681 -10.73571,11.64413 -10.8169,11.79524 -7.34851,13.67629 4.38292,2.37706 4.68708,2.17839 14.30358,-9.34263 z m 484.95528,5.41788 c 16.33396,-4.81208 19.6241,-6.04295 17.91054,-6.70051 -1.43161,-0.54936 -23.0174,6.38367 -29.8948,9.60175 -1.925,0.90075 -2.60708,1.3798 -1.51574,1.06455 1.09134,-0.31525 7.16634,-2.09986 13.5,-3.96579 z m -31.6114,-17.05841 C 833.9895,618.40975 836.56329,617.4561 861.71361,603.25744 878.57426,593.73872 879.81089,594.20171 845,597 c -37.60381,3.0228 -38.05843,2.31578 -2.90556,-4.51873 4.72694,-0.91902 9.21432,-2.05406 9.97197,-2.52231 5.32508,-3.29109 -18.35123,-1.14532 -56.24355,5.09731 C 785.99533,596.67532 776.89454,598 775.59889,598 773.57761,598 770,606.43909 770,611.20701 c 0,0.16279 6.8625,0.29531 15.25,0.29449 8.3875,-8.3e-4 17.05,0.27214 19.25,0.60659 3.44855,0.52427 -5.10185,0.89511 -30.14147,1.30728 -5.14147,0.0846 -5.14147,0.0846 -6.88805,10.08463 -0.96062,5.5 -1.95761,10.5625 -2.21552,11.25 -0.70616,1.88233 0.31564,1.69148 23.1179,-4.31803 z M 886.33181,624.5 c 3.20182,-9.92747 6.91008,-24.59144 6.35829,-25.14323 -0.88882,-0.88882 -27.65443,16.95527 -36.1901,24.12721 -3.52111,2.95855 -4.29338,3.18014 13.2536,-3.80285 6.18949,-2.46317 11.45253,-4.15662 11.69566,-3.76323 0.24312,0.39338 0.579,4.59932 0.74639,9.34652 0.35361,10.02842 0.67436,9.96914 4.13616,-0.76442 z M 342.5,592.12679 c 1.3204,-1.24155 14.55687,-5.11842 17.60781,-5.1572 4.10415,-0.0522 -0.0124,-1.74788 -8.72999,-3.59606 -9.75307,-2.06772 -9.63482,-1.91572 -12.38743,-15.92244 -2.70325,-13.75552 -2.80361,-13.72378 -5.44171,1.72085 -2.07107,12.12504 -2.07107,12.12504 -7.05987,13.51553 -17.15858,4.78249 -17.72568,5.52525 -5.91843,7.75163 C 331.5,592.5 331.5,592.5 333.85549,602.5 c 1.29552,5.5 2.59538,10.675 2.88857,11.5 0.2932,0.825 1.48323,-3.54741 2.64451,-9.71646 1.16129,-6.16906 2.56143,-11.63959 3.11143,-12.15675 z m 32.14655,-28.45381 c 9.83246,-8.05394 7.4388,-8.12802 20.20736,0.62532 5.85535,4.01407 11.14494,7.60129 11.75464,7.9716 1.01677,0.61755 -6.42938,-21.19809 -8.65444,-25.35564 -1.06661,-1.99298 1.41639,-4.80464 10.29589,-11.65871 C 414.76085,530.22983 414.49316,530 402.12869,530 391.25738,530 391.25738,530 386.40072,515 381.89071,501.07066 380,497.20697 380,501.92003 c 0,2.79444 -6.92096,26.40093 -8.08006,27.56003 -0.54067,0.54067 -7.95104,1.21634 -16.46748,1.50149 C 339.968,531.5 339.968,531.5 351.58085,539.5 c 6.38706,4.4 12.30603,8.48913 13.15326,9.08695 1.4632,1.03247 -0.65127,8.65444 -8.43712,30.41305 -0.29521,0.825 1.8797,-0.78466 4.83313,-3.57702 2.95344,-2.79237 9.03583,-8.07987 13.51643,-11.75 z M 454.75509,554 c 1.65211,0 7.13523,3.67998 21.15648,14.19914 5.72636,4.29608 10.56302,7.6596 10.74814,7.47448 0.4608,-0.4608 -5.18026,-19.16173 -8.20038,-27.18543 -3.35813,-8.92174 -4.09595,-7.77733 12.5644,-19.48819 8.21576,-5.775 14.94722,-10.725 14.95882,-11 0.0116,-0.275 -7.57137,-0.275 -16.85105,0 -24.17065,0.71629 -21.59319,2.09133 -27.17962,-14.5 -4.52863,-13.44975 -4.75887,-13.88209 -5.85806,-11 -10.40443,27.28049 -9.74324,26.46568 -21.59382,26.61058 -6.05,0.074 -15.725,0.41685 -21.5,0.76196 -11.88205,0.71005 -13.05991,-0.87922 10.70415,14.44288 11.32075,7.29916 11.40314,4.75296 -1.08473,33.52319 -1.99068,4.58624 -3.61942,8.53266 -3.61942,8.76981 0,0.23716 7.73337,-4.75272 17.18526,-11.08861 C 445.63716,559.18391 453.99358,554 454.75509,554 Z M 836.5,568.4788 c 8.69588,-0.93046 7.95614,-1.20336 -7.55734,-2.78798 C 816.5,564.41986 816.5,564.41986 824,562.60336 c 4.125,-0.99908 11.325,-3.08186 16,-4.62842 4.675,-1.54655 14.50484,-4.68125 21.84409,-6.966 7.33925,-2.28475 13.18925,-4.29298 13,-4.46273 -0.44124,-0.39578 -17.42851,2.52088 -40.34409,6.92694 -9.9,1.90351 -22.275,4.2807 -27.5,5.28265 -10.48278,2.01018 -11.12331,2.56504 -12.45227,10.78678 -0.65344,4.04258 -0.65344,4.04258 17.14942,1.86389 C 821.48872,570.2082 832.65,568.89074 836.5,568.4788 Z M 314.83222,972.54611 c 5.07623,-2.99963 10.45312,-6.31853 11.94865,-7.37531 8.70864,-6.15384 41.76497,-22.92401 53.21913,-26.99919 14.92531,-5.31016 27.32963,-10.22656 33.41435,-13.24364 8.23837,-4.08495 8.00141,-3.54411 -3.62559,8.27495 -23.55591,23.94504 -25.51929,24.9977 -65.78876,35.27238 -16.225,4.13978 -30.88195,7.97639 -32.571,8.52579 -6.49143,2.11148 -5.48947,0.79987 3.40322,-4.45498 z M 944.55946,757.46528 c -0.36471,-1.9441 -2.46753,-9.17891 -4.67292,-16.07737 -4.00981,-12.54264 -4.00981,-12.54264 3.08297,-27.67097 7.94614,-16.94851 15.98359,-32.09717 16.66715,-31.41362 0.60038,0.60039 -9.33351,30.51439 -14.64251,44.09306 -5.01074,12.81582 -6.23231,11.22558 13.50585,17.58195 20.19019,6.50193 19.47781,6.21892 17.07542,6.78337 -1.05852,0.24871 -7.74467,2.65407 -14.8581,5.34525 -15.43764,5.84042 -15.31888,5.83043 -16.15786,1.35833 z M 222.94866,656.78206 c -0.7263,-1.80513 -4.2001,-9.35706 -7.71956,-16.78206 -3.51947,-7.425 -10.46636,-22.5 -15.43754,-33.5 -4.97119,-11 -11.01247,-23.9375 -13.42508,-28.75 -2.4126,-4.8125 -4.12267,-8.75 -3.80014,-8.75 5.69209,0 30.50432,7.50277 30.86858,9.3341 0.23695,1.19125 1.35707,8.9159 2.48917,17.1659 1.13209,8.25 2.96888,21.075 4.08175,28.5 4.97487,33.19197 5.51109,39.16521 2.94282,32.78206 z"
       id="path3"
       sodipodi:nodetypes="cssssssssssssssssssssssssssssssssssssssssssssssssssssssssssssssssssssssssssssssssssssssssssssssssssssssssssssssssssssssssssssssssssssssssssssssssssssssssssssssssssssssssssssssscssssssssssssssssssssssssssssssssssssssssssssssssssssssssssssssssssssssssssssssssssssssssssssssssssssssscssssssssssssssssssssssssssssssssssssssssssscsssssssssssssssssssssssssssssssssssssssssssssssssssssssssssssssssssssssssssssssssssssssssssssssssssssssssssssssssssssssssssssssssssssssssssssssssssssssssssssssssssssssssssssssssssssssssssssssssssssssssssssssssssssssssssssssssssssssssssssssssssssssssssssssssssssssssssssssssssssssssssssssssssssssssssssssssssssssssssssssssssssssssssssssssssssssssssssssssssss" />
  </g>
</svg>
